<?xml version="1.0"?>
<!--Icons from directory ""-->
<svg xmlns="http://www.w3.org/2000/svg" width="100" height="1600" viewBox="0 0 100 1600"><svg width="100" height="100" id="Vitra_Close" y="0"><path d="M22.949 19.933L50 46.983l27.051-27.051 3.017 3.017L53.017 50l27.051 27.051-3.017 3.017L50 53.017l-27.051 27.05-3.017-3.017L46.983 50l-27.05-27.051 3.016-3.016z"/></svg><svg width="100" height="100" id="Vitra_Collection" y="100"><path d="M16.44 87.039h57.216v-59.67H16.44v59.67zm4.575-55.389h48.068v51.109H21.015V31.65z"/><path d="M26.444 17.466v4.281h52.541v55.224h4.575V17.466z"/></svg><svg width="100" height="100" id="Vitra_Down" y="200"><path d="M16.186 34.576l3.015-3.014 30.846 30.844 30.749-30.749 3.017 3.017-33.766 33.764-33.861-33.862z"/></svg><svg width="100" height="100" id="Vitra_Highlights" y="300"><path d="M50 11.43l9.342 28.9h30.457L65.181 58.233l9.438 28.899L50 69.229 25.381 87.133l9.342-28.899-24.52-17.904h30.359L50 11.43zm-6.617 32.791H22.268l17.029 12.455-6.617 20.337c6.13-4.379 11.968-8.66 17.319-12.552l17.32 12.552-6.714-20.239 17.223-12.552H56.521l-6.617-20.239-6.521 20.238z"/></svg><svg width="100" height="100" id="Vitra_Kids" y="400"><path d="M50 16.43c18.488 0 33.57 15.084 33.57 33.57 0 18.488-15.082 33.57-33.57 33.57-18.489 0-33.57-15.082-33.57-33.57 0-18.486 15.081-33.57 33.57-33.57zm0 62.859c16.153 0 29.289-13.136 29.289-29.289 0-16.153-13.136-29.289-29.289-29.289-16.153 0-29.289 13.136-29.289 29.289 0 16.153 13.136 29.289 29.289 29.289zm15.86-25.396c-.971 8.174-6.712 13.915-15.86 13.915-9.146 0-14.889-5.74-15.86-13.915h-4.379c.874 10.413 8.66 18.196 20.239 18.196 11.481 0 19.268-7.881 20.238-18.196H65.86zm-27.927-4.379V33.75h4.284v15.765h-4.284zm19.85 0V33.75h4.284v15.765h-4.284z"/></svg><svg width="100" height="100" id="Vitra_Menu" y="500"><path d="M15.213 75.918h69.574v4.572H15.213zM15.213 57.115h69.574v4.574H15.213zM15.213 38.312h69.574v4.574H15.213zM15.213 19.509h69.574v4.574H15.213z"/></svg><svg width="100" height="100" id="Vitra_MenuOpen" y="600"><path d="M19.507 15.215h4.575v69.57h-4.575zM38.311 15.215h4.575v69.57h-4.575zM57.114 15.215h4.575v69.57h-4.575zM75.918 15.215h4.575v69.57h-4.575z"/></svg><svg width="100" height="100" id="Vitra_MuseumLogo" y="700"><path d="M5.661 84.537L7.344 74.4l3.83 10.137h1.73L16.828 74.4l1.588 10.137h4.323l-2.78-17.612h-4.252l-3.599 9.393-3.387-9.393H4.447L1.386 84.537h4.275zm18.948-11.981v6.917c0 3.197 2.055 5.555 6.05 5.555 3.991 0 6.071-2.357 6.071-5.555v-6.917h-4.015v6.59c0 1.471-.703 2.429-2.057 2.429-1.357 0-2.034-.958-2.034-2.429v-6.59h-4.015zm23.358.631c-.863-.676-2.403-1.053-3.665-1.053-3.129 0-5.067 1.705-5.067 4.11 0 1.895 1.47 2.97 3.363 3.388.98.214 1.682.398 1.682 1.172a.77.77 0 0 1-.281.581c-.21.163-.514.259-.981.259-1.005 0-2.103-.327-3.176-1.167l-1.495 2.779c1.17.977 3.013 1.608 4.555 1.608 2.032 0 3.526-.56 4.482-1.635.63-.724.934-1.631.934-2.64 0-2.007-1.258-3.178-3.315-3.618-1.003-.214-1.423-.378-1.61-.586a.629.629 0 0 1-.187-.469c0-.186.049-.35.187-.489.257-.259.631-.327 1.052-.327.862 0 1.634.35 2.264.771l1.258-2.684zm11.026 7.286c-.445.799-1.121 1.334-2.197 1.334-1.495 0-2.521-1.121-2.521-2.293h8.435v-.444c.044-3.83-2.148-6.937-6.191-6.937-3.996 0-6.258 3.035-6.258 6.449 0 3.715 2.847 6.281 6.513 6.281 2.97 0 4.695-1.635 5.399-3.152l-3.18-1.238zm-2.475-5.304c1.286 0 1.985.865 2.173 1.803h-4.416c.141-.913.84-1.803 2.243-1.803zm8.41-2.613v6.917c0 3.197 2.054 5.555 6.051 5.555 3.995 0 6.071-2.357 6.071-5.555v-6.917h-4.015v6.59c0 1.471-.699 2.429-2.057 2.429s-2.034-.958-2.034-2.429v-6.59h-4.016zm19.108 11.981v-6.775c0-1.123.584-2.102 1.916-2.102.678 0 1.706.443 1.706 1.987v6.89h4.016v-6.775c0-1.123.585-2.102 1.916-2.102.68 0 1.707.443 1.707 1.987v6.89h4.016v-7.779c0-2.66-1.445-4.41-4.084-4.41-1.662 0-3.18.744-4.09 2.262-.469-1.167-1.542-2.239-3.458-2.239-1.354 0-2.687.513-3.645 1.657v-1.472h-3.993v11.981h3.993zM8.139 58.842c5.958 0 9.086-4.015 9.086-8.807 0-4.791-3.128-8.806-9.086-8.806H2.558v17.612h5.581v.001zm-1.24-3.875v-9.863h1.285c2.967 0 4.534 1.823 4.534 4.932 0 3.107-1.567 4.932-4.534 4.932H6.899v-.001zm20.768-.19c-.444.794-1.122 1.334-2.197 1.334-1.495 0-2.521-1.126-2.521-2.292h8.433v-.445c.047-3.831-2.15-6.935-6.192-6.935-3.993 0-6.255 3.032-6.255 6.444 0 3.715 2.848 6.285 6.513 6.285 2.967 0 4.695-1.636 5.395-3.152l-3.176-1.239zm-2.479-5.305c1.287 0 1.987.869 2.175 1.803h-4.415c.14-.912.84-1.803 2.24-1.803zm17.311-1.982c-.863-.678-2.403-1.051-3.665-1.051-3.129 0-5.067 1.702-5.067 4.109 0 1.894 1.47 2.967 3.364 3.389.98.209 1.681.395 1.681 1.167a.78.78 0 0 1-.279.585c-.211.165-.517.26-.98.26-1.007 0-2.104-.327-3.178-1.172l-1.495 2.779c1.169.981 3.013 1.612 4.555 1.612 2.031 0 3.525-.563 4.483-1.636.631-.721.932-1.634.932-2.637 0-2.013-1.258-3.181-3.313-3.624-1.003-.21-1.424-.374-1.61-.585a.614.614 0 0 1-.188-.469c0-.185.048-.348.188-.489.255-.258.63-.327 1.049-.327.863 0 1.636.351 2.267.771l1.256-2.682zm2.644-.631v11.982h4.062V46.859h-4.062zm-.352-3.808a2.393 2.393 0 0 0 2.381 2.383 2.39 2.39 0 0 0 2.382-2.383 2.39 2.39 0 0 0-2.382-2.381 2.393 2.393 0 0 0-2.381 2.381zm16.119 4.974c-.772-.887-1.753-1.54-3.529-1.54-3.388 0-5.699 2.917-5.699 6.234 0 3.388 2.289 6.309 5.744 6.309 1.477 0 2.829-.653 3.484-1.704v1.586c0 1.611-.795 2.688-2.526 2.688-1.003 0-1.961-.441-2.242-1.375H51.94c.187 1.071.772 2.148 1.681 3.011 1.19 1.122 2.686 1.634 4.696 1.634 4.393 0 6.607-2.638 6.607-6.751V46.859H60.91v1.166zm-5.05 4.695c0-1.427 1.076-2.593 2.598-2.593 1.587 0 2.593 1.166 2.593 2.642 0 1.449-1.006 2.617-2.593 2.617-1.591 0-2.598-1.054-2.598-2.666zm12.246 6.122h4.038v-6.381c0-1.421.773-2.498 2.057-2.498 1.264 0 1.823.887 1.823 2.357v6.521h4.014v-7.616c0-2.547-1.398-4.622-4.179-4.622-1.893 0-3.132.887-3.715 1.773v-1.518h-4.038v11.984zM.687 15.533L7.6 33.143h3.388l7.008-17.61h-4.554L9.376 26.254l-4.04-10.721H.687zm19.063 5.629v11.98h4.062v-11.98H19.75zm-.351-3.808a2.391 2.391 0 0 0 2.382 2.383 2.39 2.39 0 0 0 2.38-2.383 2.392 2.392 0 0 0-2.38-2.383 2.394 2.394 0 0 0-2.382 2.383zm15.532 7.334v-3.525h-2.803v-3.831h-4.017v3.831H25.87v3.525h2.241v8.455h4.017v-8.455h2.803zm2.081 8.455h4.038v-5.255c0-1.893.818-3.225 2.805-3.225a3.71 3.71 0 0 1 1.728.421v-4.038c-.349-.024-.606-.047-.793-.047-1.704 0-3.014.7-3.739 2.124v-1.961h-4.038v11.981h-.001zm14.343-6.026c0-1.426 1.071-2.688 2.593-2.688 1.588 0 2.594 1.262 2.594 2.734 0 1.449-1.006 2.711-2.594 2.711-1.59.001-2.593-1.144-2.593-2.757zm5.045-4.788c-.768-.887-1.753-1.541-3.528-1.541-3.386 0-5.697 3.011-5.697 6.329 0 3.389 2.287 6.4 5.741 6.4 1.478 0 2.83-.653 3.484-1.704v1.329h4.041v-11.98H56.4v1.167z"/></svg><svg width="100" height="100" id="Vitra_Next" y="800"><path d="M40.522 83.812l-3.017-3.016 30.749-30.748-30.846-30.845 3.017-3.016 33.861 33.862-33.764 33.763z"/></svg><svg width="100" height="100" id="Vitra_Previous" y="900"><path d="M59.312 16.187l3.017 3.016-30.847 30.846 30.75 30.748-3.018 3.016L25.45 50.049l33.862-33.862z"/></svg><svg width="100" height="100" id="Vitra_ReferenceNumber" y="1000"><path d="M59.731 69.314H40.27v15.959h-4.574V69.314H19.447v-4.28h16.249V34.966H19.447v-4.282h16.249V14.726h4.574v15.958h19.461V14.726h4.573v15.958h16.25v4.282h-16.25v30.068h16.25v4.28h-16.25v15.959h-4.573V69.314zm0-34.348H40.27v30.068h19.461V34.966z"/></svg><svg width="100" height="100" id="Vitra_Save" y="1100"><path d="M60.702 27.603v4.28h13.332v51.11H25.966v-51.11h13.331v-4.28H21.392v59.671h57.216V27.603z"/><path d="M32.583 44.294L50 61.711l17.417-17.417-3.017-3.017-12.162 12.162V6.617h-4.476v46.822L35.6 41.277z"/></svg><svg width="100" height="100" id="Vitra_SavePDF" y="1200"><path d="M31.638 30.395h36.726v4.282H31.638zM31.638 43.403h36.726v4.281H31.638zM31.638 56.41h36.726v4.28H31.638zM31.638 69.416h36.726v4.281H31.638z"/><path d="M21.392 17.26v69.574h57.216V17.26H21.392zm52.642 65.293H25.966V21.541h48.068v61.012z"/></svg><svg width="100" height="100" id="Vitra_Search" y="1300"><path d="M92.179 89.062L75.091 71.976c5.155-5.904 8.29-13.611 8.29-22.032 0-18.487-15.082-33.571-33.571-33.571-18.487 0-33.57 15.084-33.57 33.571s15.083 33.57 33.57 33.57c8.539 0 16.344-3.222 22.28-8.505l17.071 17.07 3.018-3.017zM20.521 49.943c0-16.153 13.136-29.289 29.289-29.289S79.099 33.79 79.099 49.943c0 16.151-13.136 29.289-29.289 29.289S20.521 66.095 20.521 49.943z"/></svg><svg width="100" height="100" id="Vitra_Share" y="1400"><path d="M60.704 27.601v4.281h13.33v51.11H25.966v-51.11h13.331v-4.281H21.392v59.672h57.216V27.601z"/><path d="M47.762 9.482v43.811h4.476V9.482l12.163 12.164 3.017-3.016L50 1.211 32.583 18.63l3.017 3.016z"/></svg><svg width="100" height="100" id="Vitra_Up" y="1500"><path d="M83.812 65.327l-3.016 3.014-30.747-30.749-30.846 30.846-3.017-3.017 33.863-33.86 33.763 33.766z"/></svg></svg>
