<?xml version="1.0" standalone="no"?>
<!DOCTYPE svg PUBLIC "-//W3C//DTD SVG 1.1//EN" "http://www.w3.org/Graphics/SVG/1.1/DTD/svg11.dtd" >
<svg xmlns="http://www.w3.org/2000/svg">
<metadata></metadata>
<defs>
<font id="vfutura_regularregular" horiz-adv-x="1161" >
<font-face units-per-em="2048" ascent="1556" descent="-492" />
<missing-glyph horiz-adv-x="491" />
<glyph unicode="&#xfb01;" horiz-adv-x="1007" d="M49 815v152h139v293q0 142 96 243t248 101q151 0 246.5 -99.5t95.5 -244.5v-103h-159v103q0 79 -48 135.5t-135 56.5q-88 0 -136 -56t-48 -136v-293h209v-152h-209v-815h-160v815h-139zM717 0v967h157v-967h-157z" />
<glyph unicode="&#xfb02;" horiz-adv-x="1007" d="M49 815v152h139v293q0 142 96 243t248 101q151 0 246.5 -99.5t95.5 -244.5v-1260h-157v1260q0 79 -49 135.5t-136 56.5q-88 0 -136 -56t-48 -136v-293h209v-152h-209v-815h-160v815h-139z" />
<glyph unicode="&#xfb03;" horiz-adv-x="1583" d="M49 815v152h164v94q0 18 -0.5 60t-0.5 64.5t1.5 55t5.5 59.5q15 132 102 209.5t218 77.5q52 0 110 -16v-152q-41 15 -92 15q-108 0 -147 -61.5t-39 -235.5v-170h393v293q0 142 96 243t248 101q151 0 246.5 -99.5t95.5 -244.5v-103h-160v103q0 79 -47.5 135.5t-134.5 56.5 q-88 0 -136 -56t-48 -136v-293h209v-152h-209v-815h-160v815h-393v-815h-158v815h-164zM1292 0v967h158v-967h-158z" />
<glyph unicode="&#xfb04;" horiz-adv-x="1583" d="M49 815v152h164v94q0 18 -0.5 60t-0.5 64.5t1.5 55t5.5 59.5q15 132 102 209.5t218 77.5q52 0 110 -16v-152q-41 15 -92 15q-108 0 -147 -61.5t-39 -235.5v-170h393v293q0 142 96 243t248 101q151 0 246.5 -99.5t95.5 -244.5v-1260h-158v1260q0 79 -48.5 135.5 t-135.5 56.5q-88 0 -136 -56t-48 -136v-293h209v-152h-209v-815h-160v815h-393v-815h-158v815h-164z" />
<glyph horiz-adv-x="0" />
<glyph horiz-adv-x="0" />
<glyph horiz-adv-x="682" />
<glyph unicode="&#xd;" horiz-adv-x="491" />
<glyph unicode=" "  horiz-adv-x="491" />
<glyph unicode="&#x09;" horiz-adv-x="491" />
<glyph unicode="&#xa0;" horiz-adv-x="491" />
<glyph unicode="!" horiz-adv-x="608" d="M178 84q0 55 36 91t89 36t89 -36.5t36 -88.5q0 -53 -35.5 -89t-89.5 -36q-52 0 -88.5 36t-36.5 87zM211 426v1118h184v-1118h-184z" />
<glyph unicode="&#x22;" horiz-adv-x="796" d="M150 1544h188l-33 -579h-127zM467 1544h190l-30 -579h-129z" />
<glyph unicode="#" horiz-adv-x="1296" d="M66 465v131h270l39 319h-254v132h272l58 436h133l-58 -436h316l55 436h131l-55 -436h262v-132h-279l-36 -319h260v-131h-279l-57 -465h-137l59 465h-309l-60 -465h-139l61 465h-253zM471 596h311l41 319h-311z" />
<glyph unicode="$" horiz-adv-x="1576" d="M301 358l162 62q41 -131 129 -209.5t209 -79.5q143 -1 221 74.5t78 179.5q0 102 -61.5 162.5t-227.5 144.5l-188 96q-238 121 -238 340q0 94 42 174.5t128 135.5t201 65v215h106v-215q105 -12 196.5 -73t155.5 -162l-135 -107q-43 84 -112.5 138.5t-163.5 54.5 q-117 0 -182.5 -66t-65.5 -149q0 -36 7 -64t25 -53.5t40.5 -45t63 -42.5t82.5 -42.5t108 -47.5q63 -28 114 -55.5t105.5 -69t91 -86.5t60.5 -107t24 -131q0 -163 -110.5 -279.5t-303.5 -133.5v-205h-106v203q-161 13 -284 117t-171 261z" />
<glyph unicode="%" horiz-adv-x="1484" d="M72 1241q0 131 95 223t226 92q132 0 227 -92t95 -223q0 -132 -95 -224.5t-227 -92.5t-226.5 92.5t-94.5 224.5zM205 1241q0 -80 53 -136t135 -56t136.5 56.5t54.5 135.5q0 78 -54.5 135.5t-136.5 57.5q-81 0 -134.5 -57t-53.5 -136zM238 16l909 1569l104 -59l-911 -1565z M768 305q0 131 96 223.5t226 92.5q132 0 227.5 -92.5t95.5 -223.5q0 -132 -95.5 -224.5t-227.5 -92.5q-131 0 -226.5 92.5t-95.5 224.5zM901 305q0 -79 54 -135.5t135 -56.5q82 0 136 56.5t54 135.5q0 78 -54 134.5t-136 56.5q-80 0 -134.5 -56.5t-54.5 -134.5z" />
<glyph unicode="&#x26;" horiz-adv-x="1544" d="M156 391q0 144 83.5 257.5t262.5 234.5q-101 110 -146 187.5t-45 168.5q0 138 104.5 235t258.5 97q134 0 228 -81.5t114 -197.5q12 -185 -103 -305q-37 -39 -48 -50t-19.5 -18t-33 -24t-56.5 -41l362 -391q64 76 152 221l119 -102q-75 -128 -162 -234l321 -348h-223 l-201 217q-127 -131 -244.5 -191.5t-265.5 -60.5q-200 0 -329 123t-129 303zM330 389q0 -108 86 -188t205 -80q97 0 199.5 55.5t187.5 159.5l-398 434q-24 -14 -58.5 -40.5t-47.5 -39.5q-98 -72 -136 -141.5t-38 -159.5zM483 1235q0 -39 33 -78q28 -95 121 -184 q103 65 159 128t56 140q0 76 -51.5 127t-130.5 51q-82 0 -134.5 -53t-52.5 -131z" />
<glyph unicode="'" horiz-adv-x="464" d="M135 1544h191l-33 -579h-127z" />
<glyph unicode="(" horiz-adv-x="653" d="M152 618q0 575 282 1049l113 -63q-252 -449 -252 -983t252 -983l-113 -64q-282 474 -282 1044z" />
<glyph unicode=")" horiz-adv-x="653" d="M104 -362q252 449 252 983t-252 983l115 63q281 -478 281 -1049q0 -566 -281 -1044z" />
<glyph unicode="*" horiz-adv-x="1095" d="M186 1272l39 123l262 -88l-4 274h129l-4 -274l262 88l39 -123l-264 -80l166 -221l-104 -76l-160 223l-158 -223l-104 76l161 221z" />
<glyph unicode="+" horiz-adv-x="1155" d="M33 711v135h473v469h145v-469h473v-135h-473v-469h-145v469h-473z" />
<glyph unicode="," horiz-adv-x="516" d="M37 -217l258 493l154 -90l-308 -462z" />
<glyph unicode="-" horiz-adv-x="692" d="M76 461v151h540v-151h-540z" />
<glyph unicode="." horiz-adv-x="534" d="M141 109q0 54 36.5 90.5t90.5 36.5q51 0 88 -36.5t37 -88.5q0 -54 -36.5 -90.5t-90.5 -36.5q-52 0 -88.5 36t-36.5 89z" />
<glyph unicode="/" horiz-adv-x="1032" d="M-8 -49l911 1665h137l-909 -1665h-139z" />
<glyph unicode="0" horiz-adv-x="1081" d="M80 424v620q0 87 35.5 170t96.5 146t148 102t183 39q128 0 234.5 -65.5t165 -170.5t58.5 -221v-620q0 -115 -58.5 -219t-165 -169t-234.5 -65q-96 0 -183 38.5t-148 101.5t-96.5 145t-35.5 168zM246 418q0 -111 90 -201t209 -90q117 0 204 90.5t87 200.5v635 q0 112 -87.5 201t-207.5 89q-119 0 -207 -89.5t-88 -200.5v-635z" />
<glyph unicode="1" horiz-adv-x="679" d="M16 1313l101 153h370v-1466h-165v1313h-306z" />
<glyph unicode="2" horiz-adv-x="1103" d="M53 0l580 643q7 8 35 38.5t36 40t31.5 37.5t32 40.5t27 38.5t25.5 42.5t19 42.5t16.5 47t8.5 47.5t4 53.5q0 119 -74.5 195.5t-207.5 76.5q-130 0 -209 -92t-84 -219h-164q5 204 133.5 336.5t327.5 132.5q192 0 320 -123.5t128 -310.5q0 -121 -56 -224.5t-163 -224.5 l-411 -464h636v-154h-991z" />
<glyph unicode="3" horiz-adv-x="1050" d="M39 375h184q12 -110 94.5 -181t202.5 -71q126 0 211.5 77.5t85.5 209.5q0 128 -89 201.5t-257 76.5v158q141 5 227 66t86 186q0 108 -73 176.5t-189 68.5q-61 0 -111 -22.5t-80.5 -59.5t-47.5 -78t-21 -83h-174q6 167 124 284t306 117t310 -112t122 -283 q0 -109 -58.5 -198t-156.5 -132q115 -45 183.5 -142t68.5 -226q0 -191 -134.5 -315t-338.5 -124q-190 0 -322.5 109.5t-152.5 296.5z" />
<glyph unicode="4" d="M-12 299l925 1264v-1110h199v-154h-199v-299h-163v299h-762zM293 453h457v626z" />
<glyph unicode="5" horiz-adv-x="1067" d="M12 242l127 100q131 -213 350 -213q153 0 257 99t104 253q0 159 -108 253.5t-279 94.5q-76 0 -158 -25t-149 -67l159 729h641v-153h-516l-80 -361q86 21 148 21q112 0 208.5 -39t162 -105.5t102.5 -156t37 -189.5q0 -220 -149.5 -365t-387.5 -145q-146 0 -265.5 69.5 t-203.5 199.5z" />
<glyph unicode="6" d="M80 442q0 183 129 353q176 231 561 706l125 -98l-403 -506q56 21 126 21q193 0 327 -136.5t134 -330.5q0 -206 -146 -345t-360 -139q-97 0 -186.5 35t-157.5 96.5t-108.5 151t-40.5 192.5zM248 446q0 -140 96.5 -231.5t235.5 -91.5q145 0 238 97t93 233t-97.5 229.5 t-240.5 93.5q-142 0 -233.5 -99.5t-91.5 -230.5z" />
<glyph unicode="7" horiz-adv-x="1130" d="M51 59l819 1252h-809v155h1110l-985 -1503z" />
<glyph unicode="8" horiz-adv-x="1105" d="M80 397q0 118 66 216.5t188 156.5q-96 44 -154.5 132t-58.5 200q0 172 122 285.5t310 113.5q187 0 309.5 -113.5t122.5 -285.5q0 -112 -59.5 -200t-155.5 -132q122 -58 188 -156.5t66 -216.5q0 -182 -134 -305t-337 -123q-204 0 -338.5 122.5t-134.5 305.5zM256 408 q0 -125 83.5 -205t213.5 -80q128 0 211.5 80t83.5 205q0 121 -85.5 202.5t-209.5 81.5q-125 0 -211 -81.5t-86 -202.5zM287 1096q0 -110 74.5 -181t191.5 -71q115 0 189.5 71t74.5 181q0 107 -75 177t-189 70q-115 0 -190.5 -70t-75.5 -177z" />
<glyph unicode="9" horiz-adv-x="1157" d="M80 1008q0 98 37.5 187t102.5 156t160 106.5t204 39.5q212 0 352.5 -137t140.5 -338q0 -191 -141 -365l-582 -708l-114 100l426 518q-51 -18 -123 -18q-193 0 -328 132.5t-135 326.5zM250 1008q0 -136 95.5 -227t236.5 -91q138 0 231.5 100t93.5 230q0 136 -92 228.5 t-237 92.5q-143 0 -235.5 -98.5t-92.5 -234.5z" />
<glyph unicode=":" horiz-adv-x="530" d="M147 115q0 54 35.5 90.5t89.5 36.5q51 0 88 -36.5t37 -88.5q0 -54 -36.5 -90.5t-90.5 -36.5q-51 0 -87 37t-36 88zM147 866q0 53 35.5 88t89.5 35q51 0 88 -36t37 -87q0 -54 -36.5 -90.5t-90.5 -36.5q-51 0 -87 37t-36 90z" />
<glyph unicode=";" horiz-adv-x="540" d="M33 -217l258 493l155 -90l-309 -462zM152 866q0 52 35.5 87.5t88.5 35.5q52 0 88.5 -36t36.5 -87q0 -54 -36 -90.5t-89 -36.5q-52 0 -88 37t-36 90z" />
<glyph unicode="&#x3c;" horiz-adv-x="1208" d="M100 709v141l1006 467v-162l-830 -377l830 -377v-159z" />
<glyph unicode="=" horiz-adv-x="1320" d="M100 670v135h1123v-135h-1123zM100 754v135h1123v-135h-1123z" />
<glyph unicode="&#x3e;" horiz-adv-x="1208" d="M102 242v159l830 377l-830 377v162l1004 -467v-141z" />
<glyph unicode="?" horiz-adv-x="1011" d="M125 1184q0 174 107.5 282.5t277.5 108.5q164 0 268.5 -98t104.5 -250q0 -111 -82.5 -205.5t-253.5 -161.5l-64 -24q-82 -31 -116.5 -80t-34.5 -101q0 -70 46.5 -112.5t119.5 -42.5q77 0 125.5 50t54.5 134l164 -2q-15 -154 -107 -247t-239 -93q-135 0 -232.5 83.5 t-97.5 227.5q0 103 62 185.5t173 130.5q17 7 60 23t72 27.5t68.5 33.5t64 45t42 57.5t17.5 75.5q-9 89 -66.5 140.5t-152.5 51.5q-102 0 -161.5 -71t-57.5 -168h-162zM379 92q0 53 36.5 89t90.5 36q52 0 88.5 -36.5t36.5 -88.5q0 -54 -36.5 -89.5t-90.5 -35.5 q-51 0 -88 36.5t-37 88.5z" />
<glyph unicode="@" horiz-adv-x="1736" d="M88 772q0 169 63 319t171 258t259.5 171t321.5 63q157 0 295.5 -51t239 -140.5t159 -220.5t58.5 -284q0 -149 -52 -274t-141 -197t-194 -72q-66 0 -112 37.5t-50 101.5q-43 -64 -122.5 -103.5t-168.5 -39.5q-160 0 -266.5 113.5t-106.5 287.5q0 125 59.5 230t156 163 t206.5 58q193 0 281 -152l16 131h129l-67 -561q-4 -32 -4 -55q-3 -90 71 -90q68 0 124 60.5t86 154t30 194.5q0 173 -82.5 309.5t-225.5 211.5t-319 75q-188 0 -344.5 -92t-247 -252t-90.5 -352q0 -198 89.5 -355.5t250.5 -246t363 -88.5q237 0 448 115l62 -101 q-245 -133 -508 -133q-183 0 -339.5 61.5t-266 169t-171 256.5t-61.5 320zM592 739q0 -108 64 -185t173 -77q118 0 200.5 97.5t82.5 228.5q0 104 -65 174t-170 70q-123 0 -204 -92t-81 -216z" />
<glyph unicode="A" horiz-adv-x="1372" d="M-12 0l698 1593l698 -1593h-190l-186 436h-648l-186 -436h-186zM426 590h518l-258 618z" />
<glyph unicode="B" horiz-adv-x="1210" d="M188 0v1544h349q209 0 330.5 -115t121.5 -282q0 -212 -176 -320q127 -35 215 -146t88 -249q0 -208 -134 -320t-368 -112h-426zM358 154h244q152 0 245 75.5t93 206.5q0 135 -96 210t-248 75h-238v-567zM358 885h168q135 0 212 62.5t77 182.5t-76 189.5t-219 69.5h-162 v-504z" />
<glyph unicode="C" horiz-adv-x="1449" d="M86 770q0 172 66 326.5t190 271.5q231 211 553 211q276 0 477 -149v-211q-88 94 -212 146t-265 52q-276 0 -463 -205q-168 -180 -168 -444q0 -150 57 -279t164 -221q171 -143 410 -143q290 0 477 172v-193q-194 -141 -477 -141q-321 0 -535 187q-134 115 -204 274.5 t-70 345.5z" />
<glyph unicode="D" horiz-adv-x="1445" d="M188 0v1544h291q238 0 404.5 -61t285.5 -195q187 -211 187 -516t-187 -516q-121 -134 -287 -195t-403 -61h-291zM358 162h119q183 0 314.5 41t230.5 145q154 161 154 424t-154 424q-99 104 -230.5 145t-314.5 41h-119v-1220z" />
<glyph unicode="E" horiz-adv-x="1112" d="M188 0v1544h826v-155h-656v-500h623v-154h-623v-581h656v-154h-826z" />
<glyph unicode="F" horiz-adv-x="1069" d="M188 0v1544h809v-155h-639v-496h596v-154h-596v-739h-170z" />
<glyph unicode="G" horiz-adv-x="1730" d="M86 770q0 161 58.5 308.5t161.5 259t255 177.5t328 66q422 0 667 -371l-143 -100q-198 309 -526 309q-137 0 -254 -51t-197.5 -138.5t-126 -207t-45.5 -254.5q0 -139 52 -260.5t138 -204.5t198.5 -130.5t232.5 -47.5q231 0 382 133.5t185 353.5h-451v154h650 q-6 -233 -98.5 -414t-265.5 -285t-402 -104q-170 0 -319.5 65t-254 174.5t-165 257.5t-60.5 310z" />
<glyph unicode="H" horiz-adv-x="1503" d="M190 0v1544h170v-643h787v643h170v-1544h-170v741h-787v-741h-170z" />
<glyph unicode="I" horiz-adv-x="544" d="M188 0v1544h170v-1544h-170z" />
<glyph unicode="J" horiz-adv-x="841" d="M-14 117l104 129q38 -51 93 -80t112 -29q70 0 117.5 35.5t66.5 87t19 113.5v1171h172v-1182q0 -167 -97 -277t-278 -110q-91 0 -173.5 39t-135.5 103z" />
<glyph unicode="K" horiz-adv-x="1265" d="M188 0v1544h170v-643l668 643h221l-727 -696l752 -848h-221l-645 731l-48 -49v-682h-170z" />
<glyph unicode="L" horiz-adv-x="968" d="M188 0v1544h170v-1390h594v-154h-764z" />
<glyph unicode="M" horiz-adv-x="1769" d="M20 0l386 1581l479 -1198l481 1198l383 -1581h-180l-254 1063l-430 -1090l-432 1092l-254 -1065h-179z" />
<glyph unicode="N" horiz-adv-x="1677" d="M188 0v1567l1131 -1184v1161h170v-1573l-1131 1186v-1157h-170z" />
<glyph unicode="O" horiz-adv-x="1761" d="M86 772q0 161 58.5 308.5t161.5 258t253 176.5t322 66t322 -66t252.5 -176.5t161 -258t58.5 -308.5q0 -217 -99 -401t-282.5 -296t-412.5 -112q-172 0 -322 65.5t-253 176t-161.5 258t-58.5 309.5zM266 772q0 -133 46.5 -252t127.5 -206t196 -138t245 -51q173 0 314.5 87 t220.5 235t79 325t-79 325t-220 234t-315 86q-104 0 -199.5 -32.5t-170.5 -92t-130.5 -139t-85 -177.5t-29.5 -204z" />
<glyph unicode="P" horiz-adv-x="1138" d="M188 0v1544h414q215 0 350 -116.5t135 -311.5q0 -202 -130.5 -316t-350.5 -114h-248v-686h-170zM358 848h244q143 0 226 69.5t83 196.5t-80.5 196.5t-234.5 69.5h-238v-532z" />
<glyph unicode="Q" horiz-adv-x="1761" d="M86 772q0 161 58.5 308.5t161.5 258t253 176.5t322 66t322 -66t252.5 -176.5t161 -258t58.5 -308.5q0 -167 -61.5 -317.5t-173.5 -264.5l221 -239h-219l-129 139q-189 -127 -432 -127q-172 0 -322 65.5t-253 176t-161.5 258t-58.5 309.5zM266 772q0 -133 46.5 -252 t127.5 -206t196 -138t245 -51q178 0 315 92l-348 383h217l260 -283q170 188 170 455q0 177 -79 325t-220 234t-315 86q-104 0 -199.5 -32.5t-170.5 -92t-130.5 -139t-85 -177.5t-29.5 -204z" />
<glyph unicode="R" horiz-adv-x="1193" d="M188 0v1544h207q89 0 211 -4q211 -9 330 -126t119 -298q0 -166 -97.5 -277t-265.5 -139l465 -700h-207l-446 686h-146v-686h-170zM358 848h127q67 0 138 6q112 10 184 77t72 183q0 83 -36 144t-102 90q-47 21 -104 26.5t-172 5.5h-107v-532z" />
<glyph unicode="S" horiz-adv-x="1165" d="M68 369l163 61q42 -139 136.5 -221.5t224.5 -83.5h4q146 0 226 74q80 75 81 186q0 87 -43.5 151t-136.5 119l-287 146q-138 70 -209 166t-71 227q0 75 30 144t84 123.5t138.5 87t185.5 32.5q87 0 162 -26.5t128 -72.5t90.5 -100t59.5 -116l-155 -64q-16 40 -40 75.5 t-59 68t-85 52t-109 19.5q-119 0 -186.5 -63t-67.5 -156q0 -84 49.5 -139.5t138.5 -102.5l281 -141q282 -146 282 -416q0 -91 -31 -169t-91 -138t-156 -94.5t-217 -34.5q-196 0 -333.5 116t-186.5 290z" />
<glyph unicode="T" horiz-adv-x="1026" d="M-8 1389v155h1042v-155h-436v-1389h-172v1389h-434z" />
<glyph unicode="U" horiz-adv-x="1466" d="M172 535v1009h170v-1009q0 -185 106.5 -297.5t284.5 -112.5t284.5 112.5t106.5 297.5v1009h170v-1009q0 -258 -149.5 -415t-411.5 -157t-411.5 157t-149.5 415z" />
<glyph unicode="V" horiz-adv-x="1298" d="M-10 1544h190l477 -1190l469 1190h183l-656 -1610z" />
<glyph unicode="W" horiz-adv-x="2039" d="M4 1544h184l381 -1145l453 1153l457 -1153l387 1145h172l-549 -1599l-467 1194l-475 -1194z" />
<glyph unicode="X" horiz-adv-x="1155" d="M0 0l481 797l-442 747h201l346 -588l346 588h190l-448 -747l481 -797h-203l-377 637l-378 -637h-197z" />
<glyph unicode="Y" horiz-adv-x="1191" d="M-12 1544h190l422 -698l420 698h182l-520 -864v-680h-172v666z" />
<glyph unicode="Z" horiz-adv-x="1224" d="M49 0l840 1389h-754v155h1039l-836 -1390h811v-154h-1100z" />
<glyph unicode="[" horiz-adv-x="671" d="M223 -489v2129h369v-137h-221v-1853h221v-139h-369z" />
<glyph unicode="\" horiz-adv-x="1032" d="M-8 1616h137l911 -1665h-139z" />
<glyph unicode="]" horiz-adv-x="671" d="M80 -346h219v1847h-219v141h371v-2129h-371v141z" />
<glyph unicode="^" horiz-adv-x="1124" d="M72 850l387 698h207l389 -698h-178l-314 569l-317 -569h-174z" />
<glyph unicode="_" d="M2 -152h1157v-149h-1157v149z" />
<glyph unicode="`" d="M367 1395l149 55l219 -301l-112 -39z" />
<glyph unicode="a" horiz-adv-x="1218" d="M76 481q0 106 38 200t102.5 161.5t155 107t191.5 39.5q108 0 199.5 -44.5t146.5 -125.5v148h160v-967h-160v156q-51 -85 -144 -133t-204 -48q-137 0 -249 69t-174 185t-62 252zM242 487q0 -153 93.5 -256.5t237.5 -103.5q146 0 239 105.5t93 254.5t-95.5 250t-240.5 101 q-141 0 -234 -104t-93 -247z" />
<glyph unicode="b" horiz-adv-x="1212" d="M152 0v1587h157v-772q58 81 148 127.5t196 46.5q211 0 347.5 -145.5t136.5 -360.5q0 -137 -61 -253t-172.5 -185.5t-248.5 -69.5q-108 0 -200.5 49t-145.5 132v-156h-157zM311 487q0 -150 95.5 -255t238.5 -105q146 0 236 102.5t90 251.5q0 150 -91 253.5t-239 103.5 q-139 0 -234.5 -100.5t-95.5 -250.5z" />
<glyph unicode="c" horiz-adv-x="970" d="M76 477q0 221 144.5 366.5t361.5 145.5q165 0 301 -92v-182q-134 123 -291 123q-150 0 -250 -102t-100 -255q0 -154 98.5 -254t249.5 -100q164 0 297 119v-176q-135 -97 -307 -97q-216 0 -360 144t-144 360z" />
<glyph unicode="d" horiz-adv-x="1216" d="M76 481q0 106 37.5 200t102 161.5t154.5 107t191 39.5q219 0 346 -170v762h158v-1581h-158v156q-51 -85 -144 -133t-204 -48q-137 0 -248.5 69t-173 185t-61.5 252zM242 487q0 -153 92.5 -256.5t236.5 -103.5q145 0 237.5 105.5t92.5 254.5t-94.5 250t-239.5 101 q-141 0 -233 -104t-92 -247z" />
<glyph unicode="e" horiz-adv-x="1110" d="M76 483q0 137 59.5 252t171.5 184.5t254 69.5q148 0 260 -73.5t169 -195t57 -271.5h-795q0 -138 96 -231t230 -93q177 0 288 166l131 -86q-64 -113 -176 -171.5t-243 -58.5q-216 0 -359 144t-143 364zM264 584h588q-19 113 -97 184.5t-196 71.5t-197.5 -74t-97.5 -182z " />
<glyph unicode="f" horiz-adv-x="661" d="M33 821v146h164v94q0 18 -0.5 60t-0.5 64.5t1.5 55t5.5 59.5q15 132 101.5 209.5t217.5 77.5q53 0 111 -16v-152q-41 15 -92 15q-108 0 -147.5 -61.5t-39.5 -235.5v-170h279v-146h-279v-821h-157v821h-164z" />
<glyph unicode="g" horiz-adv-x="1216" d="M76 489q0 207 141 353.5t348 146.5q219 0 342 -166v144h158v-969q0 -232 -124 -370t-363 -138q-180 0 -309.5 105.5t-149.5 271.5h170q19 -100 97 -162.5t192 -62.5q88 0 153.5 31t103 85.5t55 121t17.5 145.5v133q-58 -84 -145.5 -130t-196.5 -46q-139 0 -252 69 t-175 185t-62 253zM242 492q0 -150 93.5 -253.5t237.5 -103.5q143 0 236.5 103t93.5 254q0 149 -95.5 247.5t-240.5 98.5q-136 0 -230.5 -101.5t-94.5 -244.5z" />
<glyph unicode="h" horiz-adv-x="1097" d="M152 0v1583h157v-760q53 78 131.5 122t167.5 44q173 0 264 -105.5t91 -289.5v-594h-156v559q0 281 -234 281q-44 0 -79.5 -9.5t-71 -36.5t-59.5 -70.5t-39 -116.5t-15 -171v-436h-157z" />
<glyph unicode="i" horiz-adv-x="458" d="M111 1397q0 50 34.5 84.5t85.5 34.5q50 0 84.5 -35t34.5 -86q0 -49 -35.5 -84t-83.5 -35q-52 0 -86 35t-34 86zM152 0v967h155v-967h-155z" />
<glyph unicode="j" horiz-adv-x="462" d="M-96 -324q31 -10 63 -14q15 -2 30 -2l50 6q62 8 85.5 51.5t23.5 116.5v1133h157v-1045q0 -88 -2 -127q-3 -138 -75.5 -215.5t-210.5 -77.5q-57 0 -121 23v151zM113 1397q0 49 36 84t87 35q49 0 82.5 -35t33.5 -86q0 -49 -34.5 -84t-81.5 -35q-52 0 -87.5 35t-35.5 86z " />
<glyph unicode="k" horiz-adv-x="964" d="M152 0v1581h157v-1008l412 394h205l-416 -400l467 -567h-199l-381 465l-88 -86v-379h-157z" />
<glyph unicode="l" horiz-adv-x="458" d="M152 0v1581h155v-1581h-155z" />
<glyph unicode="m" horiz-adv-x="1595" d="M152 0v967h157v-125q84 147 262 147q94 0 166 -45t113 -133q95 178 299 178q145 0 233 -93.5t88 -260.5v-635h-157v524q0 58 -3 98t-14.5 84t-32 70.5t-57 44t-88.5 17.5q-54 0 -94 -18t-65 -49t-40 -80.5t-20.5 -105t-5.5 -128.5v-457h-160v569q0 134 -46 201.5 t-150 67.5q-124 0 -176 -95.5t-52 -291.5v-451h-157z" />
<glyph unicode="n" horiz-adv-x="1097" d="M152 0v967h157v-144q50 80 129 123t170 43q170 0 262.5 -109.5t92.5 -285.5v-594h-156v555q0 285 -234 285q-95 0 -162.5 -65t-88.5 -165q-13 -57 -13 -227v-383h-157z" />
<glyph unicode="o" horiz-adv-x="1142" d="M72 483q0 140 66 256.5t180.5 183t252.5 66.5t252.5 -66.5t181 -183t66.5 -256.5t-65.5 -256.5t-181 -184t-255.5 -67.5q-138 0 -252.5 67.5t-179.5 184t-65 256.5zM238 481q0 -146 97 -250t238 -104q139 0 235.5 104t96.5 250q0 149 -94.5 253t-239.5 104t-239 -104 t-94 -253z" />
<glyph unicode="p" horiz-adv-x="1222" d="M152 -487v1454h157v-152q124 174 344 174q137 0 249 -69.5t173.5 -185.5t61.5 -253q0 -104 -36 -197t-99 -161t-153.5 -108t-193.5 -40q-107 0 -199.5 48t-146.5 133v-643h-157zM311 487q0 -151 94.5 -255.5t235.5 -104.5q148 0 239 103.5t91 252.5t-90 252t-236 103 q-140 0 -237 -101t-97 -250z" />
<glyph unicode="q" horiz-adv-x="1222" d="M86 481q0 137 61 253t172 185.5t248 69.5q107 0 197.5 -45t148.5 -129v152h158v-1454h-158v643q-55 -85 -148 -133t-200 -48q-137 0 -247.5 68t-171 183.5t-60.5 254.5zM250 483q0 -149 91.5 -252.5t238.5 -103.5q143 0 237 104.5t94 255.5q0 148 -97 249.5t-236 101.5 q-147 0 -237.5 -103t-90.5 -252z" />
<glyph unicode="r" horiz-adv-x="671" d="M152 0v967h153v-123q34 71 99 109t151 38q56 0 98 -18l-6 -164q-52 25 -117 25q-109 0 -165 -84t-56 -226v-524h-157z" />
<glyph unicode="s" horiz-adv-x="821" d="M72 221l137 68q71 -168 215 -168q75 0 116.5 36t41.5 93q0 89 -103 139l-184 94q-162 82 -162 244q0 102 80.5 182t214.5 80q99 0 175.5 -46t119.5 -122l-121 -88q-65 113 -174 113q-59 0 -97 -31.5t-38 -83.5q0 -69 90 -117l176 -90q186 -94 186 -272q0 -50 -19 -97.5 t-55.5 -88.5t-100 -66t-144.5 -25q-133 0 -225 71t-129 175z" />
<glyph unicode="t" horiz-adv-x="616" d="M45 821v146h170v354h158v-354h217v-146h-217v-821h-158v821h-170z" />
<glyph unicode="u" horiz-adv-x="1083" d="M133 481v486h158v-557q0 -140 65.5 -211.5t184.5 -71.5q121 0 192 80q60 70 60 254v506h157v-486q0 -34 -6 -151q-12 -160 -124 -257.5t-279 -97.5q-135 0 -232 63t-143 177q-20 49 -26.5 107t-6.5 159z" />
<glyph unicode="v" horiz-adv-x="950" d="M0 967h182l297 -664l297 664h174l-475 -1020z" />
<glyph unicode="w" horiz-adv-x="1503" d="M0 967h168l270 -654l312 666l319 -668l270 656h164l-432 -1020l-319 698l-328 -698z" />
<glyph unicode="x" horiz-adv-x="976" d="M0 0l389 516l-338 451h197l248 -334l247 334h193l-344 -451l393 -516h-201l-295 397l-296 -397h-193z" />
<glyph unicode="y" horiz-adv-x="1028" d="M0 967h184l336 -711l340 711h174l-719 -1483h-176l293 596z" />
<glyph unicode="z" horiz-adv-x="966" d="M31 0l612 821h-541v146h834l-608 -822h596v-145h-893z" />
<glyph unicode="{" horiz-adv-x="634" d="M72 547v117q66 24 95 52t39.5 74t10.5 142v420q0 125 68 209t194 84h96v-138h-75q-75 0 -103 -46.5t-28 -151.5v-365q0 -71 -2 -110t-8.5 -79t-21 -63.5t-38.5 -45.5t-61 -42q80 -42 105.5 -98.5t25.5 -179.5v-451q0 -88 30.5 -130t104.5 -42h71v-137h-96 q-133 0 -197.5 88t-64.5 231v443q0 96 -28.5 141t-116.5 78z" />
<glyph unicode="|" horiz-adv-x="1071" d="M461 -485v2127h149v-2127h-149z" />
<glyph unicode="}" horiz-adv-x="634" d="M61 -297h70q77 0 106 46.5t29 152.5v362q0 88 3 133.5t16.5 89.5t39.5 69t72 48q-81 45 -106 101.5t-25 181.5v446q0 90 -31 132t-104 42h-70v138h58q299 0 299 -320v-442q0 -98 28.5 -142t118.5 -77v-117q-41 -15 -67 -31.5t-43 -35t-24.5 -49.5t-10 -63.5t-2.5 -88.5 v-418q0 -140 -75.5 -217.5t-223.5 -77.5h-58v137z" />
<glyph unicode="~" horiz-adv-x="1548" d="M217 1413q75 148 144 206t171 58q87 0 263 -80q93 -43 139.5 -58t87.5 -15q53 0 93.5 22t76.5 74q2 3 47 63q50 -23 92 -59q-66 -127 -137.5 -187.5t-157.5 -68.5h-55q-40 4 -63 12q-16 3 -95 39.5t-167.5 69.5t-139.5 33q-95 0 -168 -115q-23 -36 -41 -57q-49 27 -90 63 z" />
<glyph unicode="&#xa1;" horiz-adv-x="608" d="M178 903q0 53 36.5 89t90.5 36q51 0 87 -36.5t36 -88.5q0 -54 -35.5 -89.5t-89.5 -35.5q-52 0 -88.5 36t-36.5 89zM211 -553v1135h184v-1135h-184z" />
<glyph unicode="&#xa2;" horiz-adv-x="1576" d="M375 737q0 200 123 341t315 167v240h109v-236q141 -12 258 -92v-182q-132 121 -285 121q-150 0 -252 -101.5t-102 -255.5q0 -139 85.5 -236t219.5 -112q38 -5 88 -2q70 6 129 33.5t123 83.5v-176q-118 -87 -264 -97v-233h-109v236q-192 25 -315 164t-123 337z" />
<glyph unicode="&#xa3;" horiz-adv-x="1576" d="M332 0v162h178v538h-178v146h178v227q0 191 110.5 311.5t299.5 120.5q150 0 256 -82t147 -206l-158 -68q-23 88 -89.5 146.5t-162.5 58.5q-116 0 -178.5 -78.5t-62.5 -200.5v-229h379v-146h-379v-544h690v-156h-1030z" />
<glyph unicode="&#xa4;" horiz-adv-x="1548" d="M457 784q0 135 94.5 229.5t228.5 94.5q128 0 221 -96t93 -226q0 -134 -93.5 -228.5t-224.5 -94.5q-132 0 -225.5 94t-93.5 227z" />
<glyph unicode="&#xa5;" horiz-adv-x="1576" d="M180 1485h191l422 -803l419 803h187l-369 -678h303v-117h-364l-95 -184h459v-117h-459v-389h-167v389h-455v117h453l-105 184h-348v117h291z" />
<glyph unicode="&#xa6;" d="M500 354h162v-741h-162v741zM500 776v768h162v-768h-162z" />
<glyph unicode="&#xa7;" horiz-adv-x="1185" d="M145 -215l150 78q35 -100 113 -155.5t178 -55.5q126 0 190 68t64 157q0 113 -133 203q-36 24 -99 57.5t-116 60t-112.5 67t-101 82.5t-69 104t-27.5 133q0 106 67.5 193t166.5 126q-88 52 -137.5 130t-49.5 173q0 108 58 194t152 131.5t204 45.5q124 0 227 -64t152 -176 l-137 -75q-33 72 -100.5 117.5t-145.5 45.5q-107 2 -177.5 -58.5t-70.5 -158.5q0 -49 22.5 -90.5t60 -73t86.5 -60.5t103.5 -56.5t108.5 -56.5t103 -65t86.5 -77.5t60 -98.5t22.5 -124q0 -205 -200 -316q78 -53 121 -131.5t43 -171.5q0 -116 -59 -205t-156 -135.5 t-213 -46.5q-143 0 -261.5 79.5t-173.5 205.5zM338 606q0 -49 16 -88.5t49 -69.5t58 -46.5t69 -39.5l195 -106q72 42 118 101.5t46 129.5q0 83 -46.5 137t-131.5 101l-174 96q-81 -23 -140 -78.5t-59 -136.5z" />
<glyph unicode="&#xa8;" d="M248 1247q0 49 35 84t84 35t83.5 -34.5t34.5 -84.5t-34.5 -84.5t-85.5 -34.5q-49 0 -83 34.5t-34 84.5zM680 1249q0 48 34.5 82.5t86.5 34.5q46 0 80 -34t34 -83q0 -48 -34.5 -83.5t-83.5 -35.5t-83 34.5t-34 84.5z" />
<glyph unicode="&#xa9;" horiz-adv-x="1712" d="M63 774q0 134 42.5 258.5t119 222t177.5 171t224 112.5t253 39q157 0 301 -64t249 -172t167.5 -256.5t62.5 -310.5q0 -164 -63 -314t-169.5 -258.5t-254 -172.5t-310.5 -64q-161 0 -309 64.5t-255.5 173t-171 258.5t-63.5 313zM172 772q0 -142 55 -272t147.5 -224.5 t220.5 -151t267 -56.5q140 0 267 56.5t218.5 151.5t146 226t54.5 274q0 190 -91.5 351.5t-249.5 256.5t-345 95q-137 0 -264.5 -56.5t-220.5 -151t-149 -225.5t-56 -274zM408 770q0 200 141 339.5t346 139.5q172 0 303 -94v-158q-123 129 -301 129q-152 0 -255 -104.5 t-103 -251.5t103 -251.5t255 -104.5q175 0 301 129v-156q-134 -94 -303 -94q-205 0 -346 138.5t-141 338.5z" />
<glyph unicode="&#xaa;" horiz-adv-x="831" d="M74 1225q0 135 89 232t222 97q126 0 209 -96v80h115v-625h-115v82q-80 -96 -211 -96q-132 0 -220.5 96t-88.5 230zM190 1229q0 -93 58 -160h-2q60 -63 145 -63q88 0 144.5 63t56.5 160q0 93 -57 154t-144 61q-86 0 -143.5 -61.5t-57.5 -153.5z" />
<glyph unicode="&#xab;" horiz-adv-x="954" d="M76 485l348 428l102 -77l-280 -351l280 -346l-102 -82zM389 485l348 428l103 -79l-285 -349l285 -346l-103 -82z" />
<glyph unicode="&#xac;" horiz-adv-x="1380" d="M18 614v160h1033v-635h-172v475h-861z" />
<glyph unicode="&#xad;" horiz-adv-x="692" d="M76 461v151h540v-151h-540z" />
<glyph unicode="&#xae;" horiz-adv-x="1718" d="M63 774q0 218 107.5 403t292 292.5t401.5 107.5q162 0 309 -63t253.5 -170t169.5 -256t63 -314q0 -164 -63 -314t-169.5 -258.5t-254 -172.5t-310.5 -64t-311 64.5t-255 173t-170 258t-63 313.5zM172 774q0 -143 55 -273.5t147.5 -225t220 -151t267.5 -56.5t267 56.5 t218.5 151.5t146 226t54.5 274q0 194 -92 355.5t-252 254.5t-352 93q-183 0 -340 -95t-248.5 -257.5t-91.5 -352.5zM608 319v898h166q107 0 181.5 -18t115.5 -52.5t58.5 -79t17.5 -104.5q0 -92 -54 -156.5t-151 -87.5l272 -400h-147l-264 386h-68v-386h-127zM735 817h90 q191 0 191 141q0 71 -50.5 108.5t-142.5 37.5h-88v-287z" />
<glyph unicode="&#xaf;" d="M242 1196v115h680v-115h-680z" />
<glyph unicode="&#xb0;" horiz-adv-x="1026" d="M205 1247q0 129 90.5 219t220.5 90q126 0 216.5 -90.5t90.5 -216.5q0 -129 -90.5 -220t-218.5 -91q-129 0 -219 90.5t-90 218.5zM328 1247q0 -78 54 -133t132 -55t132 56t54 134q0 75 -54.5 132t-129.5 57q-78 0 -133 -56t-55 -135z" />
<glyph unicode="&#xb1;" horiz-adv-x="1286" d="M98 12v138h1090v-138h-1090zM98 727v137h473v467h146v-467h471v-137h-471v-451h-146v451h-473z" />
<glyph unicode="&#xb2;" horiz-adv-x="876" d="M78 614l391 412q81 84 113 141.5t32 114.5q0 63 -45 110.5t-118 47.5q-81 0 -130 -54.5t-49 -130.5h-135q5 133 91.5 220.5t220.5 87.5q129 0 214 -77t85 -206q0 -137 -152 -299l-229 -246h393v-121h-682z" />
<glyph unicode="&#xb3;" horiz-adv-x="876" d="M117 872h143q9 -75 55 -116t121 -41q79 0 127.5 46t48.5 120q0 154 -204 157v119q88 0 135 37.5t47 105.5q0 63 -42.5 103.5t-111.5 40.5q-68 0 -106.5 -42t-44.5 -112h-140q8 120 85.5 196.5t201.5 76.5q131 0 211 -72.5t80 -187.5q0 -127 -119 -199q65 -35 104.5 -94.5 t39.5 -128.5q0 -125 -89 -206t-225 -81q-132 0 -220 77.5t-97 200.5z" />
<glyph unicode="&#xb4;" d="M446 1165l248 283l142 -68l-281 -264z" />
<glyph unicode="&#xb5;" horiz-adv-x="1097" d="M129 -516v1483h164v-547q0 -155 57.5 -224t177.5 -69q114 0 175 66t61 227v547h156v-498q0 -84 -2 -119q-7 -184 -113.5 -279.5t-276.5 -95.5q-135 0 -239 74v-565h-160z" />
<glyph unicode="&#xb6;" horiz-adv-x="1191" d="M78 1153q0 170 125.5 280.5t322.5 110.5h461v-1790h-139v1657h-215v-1657h-137v1022h-45q-152 0 -262.5 110t-110.5 267z" />
<glyph unicode="&#xb7;" horiz-adv-x="583" d="M166 614q0 54 36.5 88.5t90.5 34.5q52 0 87.5 -34.5t35.5 -86.5q0 -55 -35 -91t-90 -36q-53 0 -89 36.5t-36 88.5z" />
<glyph unicode="&#xb8;" d="M365 -389l239 283l101 -52l-203 -293z" />
<glyph unicode="&#xb9;" horiz-adv-x="876" d="M219 1427l78 117h233v-930h-131v813h-180z" />
<glyph unicode="&#xba;" horiz-adv-x="833" d="M88 1229q0 135 96.5 230t235.5 95q133 0 228 -96t95 -229q0 -138 -96 -233t-233 -95q-135 0 -230.5 96.5t-95.5 231.5zM205 1229q0 -90 60.5 -155.5t148.5 -65.5q90 0 150.5 64.5t60.5 154.5q0 93 -60 155t-151 62q-87 0 -148 -63.5t-61 -151.5z" />
<glyph unicode="&#xbb;" horiz-adv-x="954" d="M113 139l282 346l-282 349l100 79l350 -428l-350 -428zM428 139l279 346l-279 351l100 77l349 -428l-349 -428z" />
<glyph unicode="&#xbc;" horiz-adv-x="2093" d="M227 1427l78 117h236v-930h-133v813h-181zM524 2l895 1542h133l-895 -1544zM1210 166l645 838v-721h123v-117h-123v-166h-131v166h-514zM1446 283h278v366z" />
<glyph unicode="&#xbd;" horiz-adv-x="2093" d="M238 1427l75 117h234v-930h-131v813h-178zM512 2l897 1542h131l-895 -1544q-21 0 -65.5 1t-67.5 1zM1286 0l389 412q82 87 115 143t33 113q0 62 -46.5 108.5t-119.5 46.5q-81 0 -128.5 -53t-47.5 -131h-138q5 131 91.5 219t220.5 88q131 0 215 -76t84 -206 q0 -71 -36 -142t-114 -155l-231 -246h393v-121h-680z" />
<glyph unicode="&#xbe;" horiz-adv-x="2093" d="M117 872h143q9 -75 55 -116t121 -41q79 0 127.5 46t48.5 120q0 154 -204 157v119q88 0 135 37.5t47 105.5q0 63 -42.5 103.5t-111.5 40.5q-68 0 -106.5 -42t-44.5 -112h-140q8 120 85.5 196.5t201.5 76.5q131 0 211 -72.5t80 -187.5q0 -127 -119 -199q65 -35 104.5 -94.5 t39.5 -128.5q0 -125 -89 -206t-225 -81q-132 0 -220 77.5t-97 200.5zM524 2l895 1542h133l-895 -1544q-23 0 -67 1t-66 1zM1083 186l658 818v-701h125v-117h-125v-186h-131v186h-527zM1333 303h277v348z" />
<glyph unicode="&#xbf;" horiz-adv-x="1017" d="M131 -205q0 113 82 210.5t254 158.5l63 22q81 28 115.5 78t34.5 103q0 71 -45 113t-119 42q-78 0 -127 -50t-55 -134l-164 2q18 155 109 248.5t237 93.5q135 0 232.5 -84.5t97.5 -228.5q0 -103 -62 -186.5t-172 -129.5q-18 -8 -60.5 -24t-72.5 -27.5t-68.5 -33t-62.5 -44 t-41.5 -57t-17.5 -74.5q9 -90 66.5 -141t154.5 -51q101 0 160.5 70.5t56.5 166.5h162q0 -174 -108.5 -282.5t-276.5 -108.5q-164 0 -268.5 98t-104.5 250zM383 930q0 54 35.5 89.5t89.5 35.5q52 0 88.5 -36.5t36.5 -88.5q0 -53 -35.5 -89t-89.5 -36q-52 0 -88.5 36.5 t-36.5 88.5z" />
<glyph unicode="&#xc0;" horiz-adv-x="1372" d="M-12 0l698 1593l698 -1593h-190l-186 436h-648l-186 -436h-186zM426 590h518l-258 618zM453 1909l100 114l291 -258l-78 -82z" />
<glyph unicode="&#xc1;" horiz-adv-x="1372" d="M-12 0l698 1593l698 -1593h-190l-186 436h-648l-186 -436h-186zM426 590h518l-258 618zM543 1765l291 258l100 -114l-313 -226z" />
<glyph unicode="&#xc2;" horiz-adv-x="1372" d="M-12 0l698 1593l698 -1593h-190l-186 436h-648l-186 -436h-186zM373 1726l301 287l301 -287l-90 -81l-211 198l-213 -201zM426 590h518l-258 618z" />
<glyph unicode="&#xc3;" horiz-adv-x="1372" d="M-12 0l698 1593l698 -1593h-190l-186 436h-648l-186 -436h-186zM348 1776q32 69 83 106t114 37q38 0 71.5 -11t100.5 -46q78 -29 100 -29q35 0 58.5 20.5t48.5 73.5l80 -78q-61 -143 -195 -143q-28 0 -59 10t-97 39q-80 35 -112 35q-36 0 -61 -22t-44 -70zM426 590h518 l-258 618z" />
<glyph unicode="&#xc4;" horiz-adv-x="1372" d="M-12 0l698 1593l698 -1593h-190l-186 436h-648l-186 -436h-186zM334 1800q0 51 35 86t86 35t85.5 -35t34.5 -86q0 -50 -35.5 -85.5t-84.5 -35.5q-52 0 -86.5 35t-34.5 86zM426 590h518l-258 618zM776 1802q0 50 36.5 86.5t88.5 36.5q49 0 84 -36t35 -87 q0 -50 -35.5 -85.5t-87.5 -35.5q-51 0 -86 35t-35 86z" />
<glyph unicode="&#xc5;" horiz-adv-x="1372" d="M-12 0l651 1489q-73 15 -121.5 74.5t-48.5 138.5q0 88 64 150.5t153 62.5q88 0 151.5 -63t63.5 -152q0 -78 -48 -137t-122 -74l653 -1489h-190l-186 436h-648l-186 -436h-186zM426 590h518l-258 618zM580 1700q0 -43 31.5 -74t74.5 -31q42 0 72 31t30 74q0 42 -30 72 t-72 30q-43 0 -74.5 -30.5t-31.5 -71.5z" />
<glyph unicode="&#xc6;" horiz-adv-x="2021" d="M16 0l660 1544h678l69 -155h-620l217 -496h594l82 -154h-606l247 -585h615l80 -154h-820l-188 436h-643l-182 -436h-183zM446 590h512l-258 612z" />
<glyph unicode="&#xc7;" horiz-adv-x="1449" d="M86 770q0 172 66 326.5t190 271.5q231 211 553 211q276 0 477 -149v-211q-88 94 -212 146t-265 52q-276 0 -463 -205q-168 -180 -168 -444q0 -150 57 -279t164 -221q171 -143 410 -143q290 0 477 172v-193q-194 -141 -477 -141q-321 0 -535 187q-134 115 -204 274.5 t-70 345.5zM625 -399l247 284l105 -55l-211 -303z" />
<glyph unicode="&#xc8;" horiz-adv-x="1112" d="M188 0v1544h826v-155h-656v-500h623v-154h-623v-581h656v-154h-826zM391 1909l101 114l290 -258l-77 -82z" />
<glyph unicode="&#xc9;" horiz-adv-x="1112" d="M188 0v1544h826v-155h-656v-500h623v-154h-623v-581h656v-154h-826zM449 1765l290 258l101 -114l-314 -226z" />
<glyph unicode="&#xca;" horiz-adv-x="1112" d="M188 0v1544h826v-155h-656v-500h623v-154h-623v-581h656v-154h-826zM303 1726l303 287l299 -287l-88 -81l-211 198l-215 -201z" />
<glyph unicode="&#xcb;" horiz-adv-x="1112" d="M188 0v1544h826v-155h-656v-500h623v-154h-623v-581h656v-154h-826zM264 1800q0 52 35.5 86.5t85.5 34.5q51 0 85 -35t34 -86q0 -50 -34.5 -85.5t-86.5 -35.5q-50 0 -84.5 35.5t-34.5 85.5zM715 1802q0 51 35.5 86t87.5 35q49 0 82.5 -34.5t33.5 -84.5q0 -51 -34.5 -87 t-83.5 -36q-51 0 -86 35t-35 86z" />
<glyph unicode="&#xcc;" horiz-adv-x="544" d="M-23 1909l101 114l291 -258l-78 -82zM168 0v1544h170v-1544h-170z" />
<glyph unicode="&#xcd;" horiz-adv-x="544" d="M166 1765l291 258l100 -114l-313 -226zM168 0v1544h170v-1544h-170z" />
<glyph unicode="&#xce;" horiz-adv-x="544" d="M-49 1726l303 287l299 -287l-90 -81l-209 198l-215 -201zM168 0v1544h170v-1544h-170z" />
<glyph unicode="&#xcf;" horiz-adv-x="544" d="M-41 1800q0 52 35 86.5t86 34.5t86 -35t35 -86q0 -50 -35.5 -85.5t-85.5 -35.5q-51 0 -86 35.5t-35 85.5zM168 0v1544h170v-1544h-170zM305 1802q0 51 36 86t87 35q50 0 84.5 -34.5t34.5 -84.5q0 -51 -35 -87t-86 -36t-86 35t-35 86z" />
<glyph unicode="&#xd0;" horiz-adv-x="1445" d="M4 737v129h162v678h293q229 0 376.5 -50t270.5 -167q231 -221 231 -555q0 -357 -266 -582q-119 -101 -258.5 -145.5t-353.5 -44.5h-293v737h-162zM338 162h119q164 0 283.5 37t211.5 116q201 173 201 457q0 312 -246 488q-89 63 -193.5 92.5t-256.5 29.5h-119v-516h405 v-129h-405v-575z" />
<glyph unicode="&#xd1;" horiz-adv-x="1677" d="M188 0v1567l1131 -1184v1161h170v-1573l-1131 1186v-1157h-170zM516 1776q32 69 82.5 106t112.5 37q39 0 73 -11t99 -46q78 -29 100 -29q35 0 58.5 20.5t48.5 73.5l79 -78q-61 -143 -192 -143q-30 0 -61 10t-97 39q-77 35 -110 35q-36 0 -61 -22t-44 -70z" />
<glyph unicode="&#xd2;" horiz-adv-x="1761" d="M86 772q0 161 58.5 308.5t161.5 258t253 176.5t322 66t322 -66t252.5 -176.5t161 -258t58.5 -308.5q0 -217 -99 -401t-282.5 -296t-412.5 -112q-172 0 -322 65.5t-253 176t-161.5 258t-58.5 309.5zM266 772q0 -133 46.5 -252t127.5 -206t196 -138t245 -51q173 0 314.5 87 t220.5 235t79 325t-79 325t-220 234t-315 86q-104 0 -199.5 -32.5t-170.5 -92t-130.5 -139t-85 -177.5t-29.5 -204zM643 1909l100 114l291 -258l-78 -82z" />
<glyph unicode="&#xd3;" horiz-adv-x="1761" d="M86 772q0 161 58.5 308.5t161.5 258t253 176.5t322 66t322 -66t252.5 -176.5t161 -258t58.5 -308.5q0 -217 -99 -401t-282.5 -296t-412.5 -112q-172 0 -322 65.5t-253 176t-161.5 258t-58.5 309.5zM266 772q0 -133 46.5 -252t127.5 -206t196 -138t245 -51q173 0 314.5 87 t220.5 235t79 325t-79 325t-220 234t-315 86q-104 0 -199.5 -32.5t-170.5 -92t-130.5 -139t-85 -177.5t-29.5 -204zM764 1765l291 258l100 -114l-313 -226z" />
<glyph unicode="&#xd4;" horiz-adv-x="1761" d="M86 772q0 161 58.5 308.5t161.5 258t253 176.5t322 66t322 -66t252.5 -176.5t161 -258t58.5 -308.5q0 -217 -99 -401t-282.5 -296t-412.5 -112q-172 0 -322 65.5t-253 176t-161.5 258t-58.5 309.5zM266 772q0 -133 46.5 -252t127.5 -206t196 -138t245 -51q173 0 314.5 87 t220.5 235t79 325t-79 325t-220 234t-315 86q-104 0 -199.5 -32.5t-170.5 -92t-130.5 -139t-85 -177.5t-29.5 -204zM586 1726l301 287l301 -287l-88 -81l-213 198l-213 -201z" />
<glyph unicode="&#xd5;" horiz-adv-x="1761" d="M86 772q0 161 58.5 308.5t161.5 258t253 176.5t322 66t322 -66t252.5 -176.5t161 -258t58.5 -308.5q0 -217 -99 -401t-282.5 -296t-412.5 -112q-172 0 -322 65.5t-253 176t-161.5 258t-58.5 309.5zM266 772q0 -133 46.5 -252t127.5 -206t196 -138t245 -51q173 0 314.5 87 t220.5 235t79 325t-79 325t-220 234t-315 86q-104 0 -199.5 -32.5t-170.5 -92t-130.5 -139t-85 -177.5t-29.5 -204zM561 1776q32 69 82.5 106t112.5 37q39 0 73 -11t101 -46q78 -29 100 -29q35 0 58.5 21t46.5 73l82 -78q-61 -143 -195 -143q-29 0 -59 9.5t-99 39.5 q-77 35 -110 35q-36 0 -61 -22t-44 -70z" />
<glyph unicode="&#xd6;" horiz-adv-x="1761" d="M86 772q0 161 58.5 308.5t161.5 258t253 176.5t322 66t322 -66t252.5 -176.5t161 -258t58.5 -308.5q0 -217 -99 -401t-282.5 -296t-412.5 -112q-172 0 -322 65.5t-253 176t-161.5 258t-58.5 309.5zM266 772q0 -133 46.5 -252t127.5 -206t196 -138t245 -51q173 0 314.5 87 t220.5 235t79 325t-79 325t-220 234t-315 86q-104 0 -199.5 -32.5t-170.5 -92t-130.5 -139t-85 -177.5t-29.5 -204zM541 1800q0 52 35.5 86.5t87.5 34.5q51 0 84.5 -35t33.5 -86q0 -50 -34.5 -85.5t-85.5 -35.5t-86 35.5t-35 85.5zM993 1802q0 51 35.5 86t87.5 35 q48 0 82.5 -35t34.5 -84q0 -51 -35 -87t-84 -36q-52 0 -86.5 35t-34.5 86z" />
<glyph unicode="&#xd7;" horiz-adv-x="1419" d="M121 86l483 489l-483 480l106 104l482 -477l485 487l106 -106l-487 -488l487 -489l-106 -104l-483 487l-484 -487z" />
<glyph unicode="&#xd8;" horiz-adv-x="1787" d="M86 772q0 161 58.5 308.5t161.5 258t253 176.5t322 66q313 0 536 -207l199 197l78 -82l-197 -201q85 -107 131.5 -239.5t46.5 -276.5q0 -217 -99 -401t-282.5 -296t-412.5 -112q-306 0 -523 191l-188 -191l-80 80l191 190q-94 109 -144.5 247.5t-50.5 291.5zM266 772 q0 -243 137 -416l893 895q-169 166 -415 166q-104 0 -199.5 -32.5t-170.5 -92t-130.5 -139t-85 -177.5t-29.5 -204zM481 274q168 -149 400 -149q173 0 314.5 87t220.5 235t79 325q0 216 -125 391z" />
<glyph unicode="&#xd9;" horiz-adv-x="1466" d="M172 535v1009h170v-1009q0 -185 106.5 -297.5t284.5 -112.5t284.5 112.5t106.5 297.5v1009h170v-1009q0 -258 -149.5 -415t-411.5 -157t-411.5 157t-149.5 415zM500 1909l100 114l291 -258l-78 -82z" />
<glyph unicode="&#xda;" horiz-adv-x="1466" d="M172 535v1009h170v-1009q0 -185 106.5 -297.5t284.5 -112.5t284.5 112.5t106.5 297.5v1009h170v-1009q0 -258 -149.5 -415t-411.5 -157t-411.5 157t-149.5 415zM584 1765l290 258l101 -114l-313 -226z" />
<glyph unicode="&#xdb;" horiz-adv-x="1466" d="M172 535v1009h170v-1009q0 -185 106.5 -297.5t284.5 -112.5t284.5 112.5t106.5 297.5v1009h170v-1009q0 -258 -149.5 -415t-411.5 -157t-411.5 157t-149.5 415zM432 1726l303 287l301 -287l-90 -81l-211 198l-213 -201z" />
<glyph unicode="&#xdc;" horiz-adv-x="1466" d="M172 535v1009h170v-1009q0 -185 106.5 -297.5t284.5 -112.5t284.5 112.5t106.5 297.5v1009h170v-1009q0 -258 -149.5 -415t-411.5 -157t-411.5 157t-149.5 415zM387 1800q0 52 35 86.5t86 34.5t86 -35t35 -86q0 -50 -35.5 -85.5t-85.5 -35.5q-52 0 -86.5 35.5t-34.5 85.5 zM840 1802q0 51 34.5 86t86.5 35q48 0 83 -35t35 -84q0 -51 -35.5 -87t-85.5 -36q-52 0 -85 34.5t-33 86.5z" />
<glyph unicode="&#xdd;" horiz-adv-x="1191" d="M-12 1544h190l422 -698l420 698h182l-520 -864v-680h-172v666zM432 1765l291 258l100 -114l-313 -226z" />
<glyph unicode="&#xde;" horiz-adv-x="1071" d="M168 0v1544h170v-231h164q245 0 374.5 -116t129.5 -312q0 -156 -85 -260t-239 -136q-58 -21 -128.5 -27.5t-215.5 -6.5v-455h-170zM338 616h100q18 0 50.5 1t46.5 1q141 1 217.5 72t76.5 195q0 148 -89.5 207t-303.5 59h-98v-535z" />
<glyph unicode="&#xdf;" horiz-adv-x="1216" d="M33 819v146h155v182q0 192 117 306t285 114q163 0 279 -105t116 -276q0 -117 -62 -203t-161 -119q166 -32 274.5 -150.5t108.5 -291.5q0 -188 -122 -316.5t-318 -128.5q-125 0 -228 50v149q83 -49 205 -49q124 0 210.5 78.5t86.5 224.5q0 152 -115 250t-313 98v146 q122 0 195 70.5t73 185.5q0 98 -65.5 166.5t-171.5 68.5q-110 0 -172 -76.5t-62 -189.5v-1149h-160v819h-155z" />
<glyph unicode="&#xe0;" horiz-adv-x="1218" d="M76 481q0 106 38 200t102.5 161.5t155 107t191.5 39.5q108 0 199.5 -44.5t146.5 -125.5v148h160v-967h-160v156q-51 -85 -144 -133t-204 -48q-137 0 -249 69t-174 185t-62 252zM242 487q0 -153 93.5 -256.5t237.5 -103.5q146 0 239 105.5t93 254.5t-95.5 250t-240.5 101 q-141 0 -234 -104t-93 -247zM377 1331l100 115l291 -258l-78 -82z" />
<glyph unicode="&#xe1;" horiz-adv-x="1218" d="M76 481q0 106 38 200t102.5 161.5t155 107t191.5 39.5q108 0 199.5 -44.5t146.5 -125.5v148h160v-967h-160v156q-51 -85 -144 -133t-204 -48q-137 0 -249 69t-174 185t-62 252zM242 487q0 -153 93.5 -256.5t237.5 -103.5q146 0 239 105.5t93 254.5t-95.5 250t-240.5 101 q-141 0 -234 -104t-93 -247zM436 1188l291 258l100 -115l-313 -225z" />
<glyph unicode="&#xe2;" horiz-adv-x="1218" d="M76 481q0 106 38 200t102.5 161.5t155 107t191.5 39.5q108 0 199.5 -44.5t146.5 -125.5v148h160v-967h-160v156q-51 -85 -144 -133t-204 -48q-137 0 -249 69t-174 185t-62 252zM242 487q0 -153 93.5 -256.5t237.5 -103.5q146 0 239 105.5t93 254.5t-95.5 250t-240.5 101 q-141 0 -234 -104t-93 -247zM299 1169l301 285l299 -285l-88 -82l-211 199l-215 -201z" />
<glyph unicode="&#xe3;" horiz-adv-x="1218" d="M76 481q0 106 38 200t102.5 161.5t155 107t191.5 39.5q108 0 199.5 -44.5t146.5 -125.5v148h160v-967h-160v156q-51 -85 -144 -133t-204 -48q-137 0 -249 69t-174 185t-62 252zM242 487q0 -153 93.5 -256.5t237.5 -103.5q146 0 239 105.5t93 254.5t-95.5 250t-240.5 101 q-141 0 -234 -104t-93 -247zM262 1221q67 143 195 143q51 0 137 -41l61 -29q41 -18 70 -18q35 0 58 20t48 74l76 -76q-26 -68 -76 -104.5t-116 -36.5q-26 0 -125.5 43t-136.5 43t-61.5 -22t-43.5 -70z" />
<glyph unicode="&#xe4;" horiz-adv-x="1218" d="M76 481q0 106 38 200t102.5 161.5t155 107t191.5 39.5q108 0 199.5 -44.5t146.5 -125.5v148h160v-967h-160v156q-51 -85 -144 -133t-204 -48q-137 0 -249 69t-174 185t-62 252zM242 487q0 -153 93.5 -256.5t237.5 -103.5q146 0 239 105.5t93 254.5t-95.5 250t-240.5 101 q-141 0 -234 -104t-93 -247zM272 1247q0 49 35 84t84 35q51 0 85 -34.5t34 -84.5q0 -49 -35 -84t-84 -35q-51 0 -85 34.5t-34 84.5zM702 1249q0 48 35.5 82.5t87.5 34.5q48 0 81.5 -34t33.5 -83q0 -48 -34.5 -83.5t-84.5 -35.5q-49 0 -84 35t-35 84z" />
<glyph unicode="&#xe5;" horiz-adv-x="1218" d="M76 481q0 106 38 200t102.5 161.5t155 107t191.5 39.5q108 0 199.5 -44.5t146.5 -125.5v148h160v-967h-160v156q-51 -85 -144 -133t-204 -48q-137 0 -249 69t-174 185t-62 252zM242 487q0 -153 93.5 -256.5t237.5 -103.5q146 0 239 105.5t93 254.5t-95.5 250t-240.5 101 q-141 0 -234 -104t-93 -247zM395 1298q0 82 58.5 140.5t142.5 58.5q82 0 141.5 -59.5t59.5 -141.5q0 -83 -59.5 -141.5t-141.5 -58.5q-84 0 -142.5 59t-58.5 143zM498 1296q0 -40 29 -68t69 -28t68 28t28 68t-29 68.5t-67 28.5q-40 0 -69 -29.5t-29 -67.5z" />
<glyph unicode="&#xe6;" horiz-adv-x="1765" d="M86 297q0 138 104.5 233t284.5 95q77 0 156 -29t129 -82q0 20 -10 98q-19 109 -88.5 168.5t-184.5 59.5q-125 0 -278 -64v150q147 65 301 65q128 0 217.5 -51.5t134.5 -138.5q61 88 154.5 138t212.5 50q146 0 257 -76.5t166.5 -198t55.5 -265.5h-785q1 -138 91.5 -231 t222.5 -93q176 0 282 170l129 -92q-71 -111 -177.5 -169.5t-233.5 -58.5q-118 0 -218.5 47.5t-156.5 133.5q-55 -79 -150 -131t-219 -52q-174 0 -285.5 88t-111.5 236zM250 297q2 -78 69 -127t173 -49q102 0 179 52t77 132q0 70 -74 121t-185 51q-107 0 -173 -51.5 t-66 -128.5zM926 584h583q-19 113 -96.5 184.5t-193.5 71.5q-119 0 -197 -73.5t-96 -182.5z" />
<glyph unicode="&#xe7;" horiz-adv-x="970" d="M76 477q0 221 144.5 366.5t361.5 145.5q165 0 301 -92v-182q-134 123 -291 123q-150 0 -250 -102t-100 -255q0 -154 98.5 -254t249.5 -100q164 0 297 119v-176q-135 -97 -307 -97q-216 0 -360 144t-144 360zM315 -389l240 283l100 -52l-202 -293z" />
<glyph unicode="&#xe8;" horiz-adv-x="1110" d="M76 483q0 137 59.5 252t171.5 184.5t254 69.5q111 0 203.5 -44t153 -119t93.5 -172.5t33 -204.5h-792q0 -138 92 -231t225 -93q181 0 287 170l127 -92q-71 -111 -178.5 -169.5t-235.5 -58.5q-215 0 -354 143.5t-139 364.5zM264 584h590q-19 113 -98 184.5t-197 71.5 t-197.5 -74t-97.5 -182zM348 1331l101 115l290 -258l-77 -82z" />
<glyph unicode="&#xe9;" horiz-adv-x="1110" d="M76 483q0 137 59.5 252t171.5 184.5t254 69.5q111 0 203.5 -44t153 -119t93.5 -172.5t33 -204.5h-792q0 -138 92 -231t225 -93q181 0 287 170l127 -92q-71 -111 -178.5 -169.5t-235.5 -58.5q-215 0 -354 143.5t-139 364.5zM264 584h590q-19 113 -98 184.5t-197 71.5 t-197.5 -74t-97.5 -182zM414 1188l291 258l100 -115l-313 -225z" />
<glyph unicode="&#xea;" horiz-adv-x="1110" d="M76 483q0 137 59.5 252t171.5 184.5t254 69.5q111 0 203.5 -44t153 -119t93.5 -172.5t33 -204.5h-792q0 -138 92 -231t225 -93q181 0 287 170l127 -92q-71 -111 -178.5 -169.5t-235.5 -58.5q-215 0 -354 143.5t-139 364.5zM264 584h590q-19 113 -98 184.5t-197 71.5 t-197.5 -74t-97.5 -182zM270 1169l301 285l301 -285l-88 -82l-213 199l-213 -201z" />
<glyph unicode="&#xeb;" horiz-adv-x="1110" d="M76 483q0 137 59.5 252t171.5 184.5t254 69.5q111 0 203.5 -44t153 -119t93.5 -172.5t33 -204.5h-792q0 -138 92 -231t225 -93q181 0 287 170l127 -92q-71 -111 -178.5 -169.5t-235.5 -58.5q-215 0 -354 143.5t-139 364.5zM221 1247q0 50 34 84.5t83 34.5q51 0 85 -34.5 t34 -84.5q0 -49 -34.5 -84t-84.5 -35t-83.5 34.5t-33.5 84.5zM264 584h590q-19 113 -98 184.5t-197 71.5t-197.5 -74t-97.5 -182zM651 1249q0 48 35 82.5t86 34.5q48 0 81.5 -34t33.5 -83q0 -48 -34 -83.5t-83 -35.5q-51 0 -85 34.5t-34 84.5z" />
<glyph unicode="&#xec;" horiz-adv-x="458" d="M-92 1331l100 115l291 -258l-78 -82zM135 0v967h160v-967h-160z" />
<glyph unicode="&#xed;" horiz-adv-x="458" d="M129 1188l291 258l100 -115l-313 -225zM135 0v967h160v-967h-160z" />
<glyph unicode="&#xee;" horiz-adv-x="458" d="M-72 1167l287 287l285 -287l-94 -82l-191 195l-192 -195zM135 0v967h160v-967h-160z" />
<glyph unicode="&#xef;" horiz-adv-x="458" d="M-72 1247q0 50 34 84.5t85 34.5q49 0 83 -34.5t34 -84.5t-34 -84.5t-85 -34.5q-49 0 -83 34.5t-34 84.5zM135 0v967h160v-967h-160zM262 1249q0 47 36 82t85 35t83 -34t34 -83q0 -48 -34.5 -83.5t-84.5 -35.5q-51 0 -85 34.5t-34 84.5z" />
<glyph unicode="&#xf0;" horiz-adv-x="1187" d="M90 475q0 197 130.5 344t324.5 166q61 4 90 0q83 -8 164 -65q-54 143 -109 238t-141 188l-193 -115l-55 104l174 107q-73 73 -182 143l88 68q121 -68 207 -146l190 111l64 -100l-174 -101q198 -236 320 -477t122 -440q0 -225 -146.5 -375t-365.5 -150q-215 0 -361.5 144 t-146.5 356zM256 487q0 -151 99 -255.5t243 -104.5q145 0 244.5 104.5t99.5 251.5q0 149 -99 252t-247 103q-143 0 -241.5 -104t-98.5 -247z" />
<glyph unicode="&#xf1;" horiz-adv-x="1097" d="M152 0v967h157v-144q53 78 131.5 122t167.5 44q170 0 262.5 -109.5t92.5 -285.5v-594h-156v555q0 285 -234 285q-95 0 -162.5 -65t-88.5 -165q-13 -57 -13 -227v-383h-157zM240 1221q64 143 192 143q35 0 133.5 -44t134.5 -44t59.5 20.5t47.5 73.5l78 -76 q-28 -68 -78.5 -104.5t-116.5 -36.5q-26 0 -125.5 43t-136.5 43t-61 -21.5t-43 -70.5z" />
<glyph unicode="&#xf2;" horiz-adv-x="1142" d="M72 483q0 140 66 256.5t180.5 183t252.5 66.5t252.5 -66.5t181 -183t66.5 -256.5t-65.5 -256.5t-181 -184t-255.5 -67.5q-138 0 -252.5 67.5t-179.5 184t-65 256.5zM238 481q0 -146 97 -250t238 -104q139 0 235.5 104t96.5 250q0 149 -94.5 253t-239.5 104t-239 -104 t-94 -253zM342 1331l100 115l291 -258l-78 -82z" />
<glyph unicode="&#xf3;" horiz-adv-x="1142" d="M72 483q0 140 66 256.5t180.5 183t252.5 66.5t252.5 -66.5t181 -183t66.5 -256.5t-65.5 -256.5t-181 -184t-255.5 -67.5q-138 0 -252.5 67.5t-179.5 184t-65 256.5zM238 481q0 -146 97 -250t238 -104q139 0 235.5 104t96.5 250q0 149 -94.5 253t-239.5 104t-239 -104 t-94 -253zM426 1188l291 258l100 -115l-313 -225z" />
<glyph unicode="&#xf4;" horiz-adv-x="1142" d="M72 483q0 140 66 256.5t180.5 183t252.5 66.5t252.5 -66.5t181 -183t66.5 -256.5t-65.5 -256.5t-181 -184t-255.5 -67.5q-138 0 -252.5 67.5t-179.5 184t-65 256.5zM238 481q0 -146 97 -250t238 -104q139 0 235.5 104t96.5 250q0 149 -94.5 253t-239.5 104t-239 -104 t-94 -253zM266 1169l301 285l301 -285l-88 -82l-213 199l-213 -201z" />
<glyph unicode="&#xf5;" horiz-adv-x="1142" d="M72 483q0 140 66 256.5t180.5 183t252.5 66.5t252.5 -66.5t181 -183t66.5 -256.5t-65.5 -256.5t-181 -184t-255.5 -67.5q-138 0 -252.5 67.5t-179.5 184t-65 256.5zM238 481q0 -146 97 -250t238 -104q139 0 235.5 104t96.5 250q0 149 -94.5 253t-239.5 104t-239 -104 t-94 -253zM242 1221q64 143 192 143q56 0 139 -41l60 -29q40 -18 69 -18q36 0 60 20.5t47 73.5l78 -76q-26 -67 -77 -104t-116 -37q-26 0 -127 43t-137 43q-37 0 -61 -21.5t-43 -70.5z" />
<glyph unicode="&#xf6;" horiz-adv-x="1142" d="M72 483q0 140 66 256.5t180.5 183t252.5 66.5t252.5 -66.5t181 -183t66.5 -256.5t-65.5 -256.5t-181 -184t-255.5 -67.5q-138 0 -252.5 67.5t-179.5 184t-65 256.5zM233 1247q0 49 34.5 84t84.5 35t84.5 -35t34.5 -84t-34.5 -84t-84.5 -35q-51 0 -85 34.5t-34 84.5z M238 481q0 -146 97 -250t238 -104q139 0 235.5 104t96.5 250q0 149 -94.5 253t-239.5 104t-239 -104t-94 -253zM664 1249q0 48 35 82.5t85 34.5q48 0 82.5 -34t34.5 -83q0 -48 -35 -83.5t-84 -35.5t-83.5 34.5t-34.5 84.5z" />
<glyph unicode="&#xf7;" horiz-adv-x="1286" d="M96 711v133h1069v-133h-1069zM518 434q0 54 35.5 90.5t89.5 36.5q53 0 89 -36.5t36 -88.5q0 -54 -36 -89.5t-89 -35.5q-52 0 -88.5 36t-36.5 87zM518 1116q0 54 35.5 90.5t89.5 36.5q53 0 89 -36.5t36 -88.5q0 -54 -36 -89.5t-89 -35.5q-52 0 -88.5 36t-36.5 87z" />
<glyph unicode="&#xf8;" horiz-adv-x="1179" d="M76 43l119 119q-111 139 -111 321q0 139 67 255t184.5 183.5t258.5 67.5q181 0 321 -115l123 123l66 -63l-125 -123q117 -139 117 -326q0 -140 -67 -257.5t-184.5 -185t-258.5 -67.5q-184 0 -330 121l-121 -119zM250 487q0 -122 61 -213l490 490q-96 74 -215 74 q-141 0 -238.5 -102.5t-97.5 -248.5zM371 207q92 -80 219 -80q143 0 241.5 104t98.5 250q0 119 -70 217z" />
<glyph unicode="&#xf9;" horiz-adv-x="1083" d="M133 481v486h158v-557q0 -140 65.5 -211.5t184.5 -71.5q121 0 192 80q60 70 60 254v506h157v-486q0 -34 -6 -151q-12 -160 -124 -257.5t-279 -97.5q-135 0 -232 63t-143 177q-20 49 -26.5 107t-6.5 159zM295 1331l100 115l291 -258l-78 -82z" />
<glyph unicode="&#xfa;" horiz-adv-x="1083" d="M133 481v486h158v-557q0 -140 65.5 -211.5t184.5 -71.5q121 0 192 80q60 70 60 254v506h157v-486q0 -34 -6 -151q-12 -160 -124 -257.5t-279 -97.5q-135 0 -232 63t-143 177q-20 49 -26.5 107t-6.5 159zM399 1188l291 258l101 -115l-314 -225z" />
<glyph unicode="&#xfb;" horiz-adv-x="1083" d="M133 481v486h158v-557q0 -140 65.5 -211.5t184.5 -71.5q121 0 192 80q60 70 60 254v506h157v-486q0 -34 -6 -151q-12 -160 -124 -257.5t-279 -97.5q-135 0 -232 63t-143 177q-20 49 -26.5 107t-6.5 159zM240 1169l301 285l301 -285l-88 -82l-213 199l-213 -201z" />
<glyph unicode="&#xfc;" horiz-adv-x="1083" d="M133 481v486h158v-557q0 -140 65.5 -211.5t184.5 -71.5q121 0 192 80q60 70 60 254v506h157v-486q0 -34 -6 -151q-12 -160 -124 -257.5t-279 -97.5q-135 0 -232 63t-143 177q-20 49 -26.5 107t-6.5 159zM207 1247q0 49 34.5 84t84.5 35q49 0 82.5 -34.5t33.5 -84.5 t-33.5 -84.5t-84.5 -34.5q-49 0 -83 34.5t-34 84.5zM637 1249q0 48 35 82.5t86 34.5q48 0 82 -34t34 -83q0 -48 -34.5 -83.5t-83.5 -35.5q-50 0 -84.5 35t-34.5 84z" />
<glyph unicode="&#xfd;" horiz-adv-x="1028" d="M0 967h184l336 -711l340 711h174l-719 -1483h-176l293 596zM393 1188l291 258l100 -115l-313 -225z" />
<glyph unicode="&#xfe;" horiz-adv-x="1206" d="M133 -487v2070h158v-768q127 174 342 174q134 0 247 -68.5t177.5 -185t64.5 -252.5q0 -137 -64 -253.5t-177 -185.5t-250 -69q-106 0 -195 48t-145 133v-643h-158zM295 487q0 -150 95.5 -255t238.5 -105q140 0 233.5 103.5t93.5 250.5t-94.5 252t-236.5 105 q-136 0 -233 -102t-97 -249z" />
<glyph unicode="&#xff;" horiz-adv-x="1028" d="M0 967h184l336 -711l340 711h174l-719 -1483h-176l293 596zM180 1247q0 49 35 84t84 35t84 -35t35 -84q0 -50 -35 -84.5t-86 -34.5q-49 0 -83 34.5t-34 84.5zM612 1249q0 48 34.5 82.5t86.5 34.5q46 0 80.5 -34t34.5 -83q0 -48 -35 -83.5t-84 -35.5t-83 34.5t-34 84.5z " />
<glyph unicode="&#x152;" horiz-adv-x="2398" d="M86 772q0 161 58 308.5t160 258t251.5 176.5t321.5 66q194 0 348.5 -84t253.5 -229v276h821v-155h-651v-500h618v-154h-618v-581h651v-154h-821v274q-98 -146 -252.5 -228.5t-349.5 -82.5q-172 0 -321.5 65.5t-251.5 176t-160 258t-58 309.5zM266 772q0 -178 77.5 -325.5 t218.5 -234.5t315 -87q187 0 328 93t212 248.5t66 346.5q-4 167 -83.5 305.5t-217.5 218.5t-305 80q-174 0 -315 -86.5t-218.5 -233.5t-77.5 -325z" />
<glyph unicode="&#x153;" horiz-adv-x="1935" d="M76 481q0 214 145 361t357 147q130 0 236.5 -61.5t170.5 -167.5q60 106 164 167.5t237 61.5q111 0 203.5 -44t153 -119t94 -172.5t33.5 -204.5h-793q0 -139 92.5 -231.5t227.5 -92.5q178 0 284 170l129 -92q-71 -111 -178.5 -169.5t-236.5 -58.5q-131 0 -242.5 60.5 t-169.5 165.5q-68 -105 -175.5 -165.5t-238.5 -60.5q-136 0 -249.5 67.5t-178.5 184t-65 254.5zM242 483q0 -146 95 -251t238 -105q140 0 235 105.5t95 250.5q0 147 -95 251t-239 104q-141 0 -235 -104t-94 -251zM1090 584h589q-18 112 -97 184t-196 72q-118 0 -198 -74 t-98 -182z" />
<glyph unicode="&#x178;" horiz-adv-x="1191" d="M-12 1544h190l422 -698l420 698h182l-520 -864v-680h-172v666zM246 1800q0 52 35 86.5t86 34.5t84.5 -35t33.5 -86q0 -50 -34.5 -85.5t-85.5 -35.5q-50 0 -84.5 35.5t-34.5 85.5zM696 1802q0 51 35.5 86t87.5 35q49 0 83 -34.5t34 -84.5q0 -51 -35 -87t-84 -36 q-52 0 -86.5 35t-34.5 86z" />
<glyph unicode="&#x2c6;" d="M281 1167l303 287l301 -287l-90 -82l-211 199l-213 -199z" />
<glyph unicode="&#x2dc;" d="M258 1221q31 69 81 106t112 37q56 0 139 -41l59 -29q37 -18 70 -18q37 0 60 20t48 74l76 -76q-26 -68 -76 -104.5t-116 -36.5q-25 0 -125.5 43t-139.5 43q-36 0 -60.5 -22t-41.5 -70z" />
<glyph unicode="&#x2000;" horiz-adv-x="1011" />
<glyph unicode="&#x2001;" horiz-adv-x="2023" />
<glyph unicode="&#x2002;" horiz-adv-x="1011" />
<glyph unicode="&#x2003;" horiz-adv-x="2023" />
<glyph unicode="&#x2004;" horiz-adv-x="674" />
<glyph unicode="&#x2005;" horiz-adv-x="505" />
<glyph unicode="&#x2006;" horiz-adv-x="337" />
<glyph unicode="&#x2007;" horiz-adv-x="337" />
<glyph unicode="&#x2008;" horiz-adv-x="252" />
<glyph unicode="&#x2009;" horiz-adv-x="404" />
<glyph unicode="&#x200a;" horiz-adv-x="112" />
<glyph unicode="&#x2010;" horiz-adv-x="692" d="M76 461v151h540v-151h-540z" />
<glyph unicode="&#x2011;" horiz-adv-x="692" d="M76 461v151h540v-151h-540z" />
<glyph unicode="&#x2012;" horiz-adv-x="692" d="M76 461v151h540v-151h-540z" />
<glyph unicode="&#x2013;" horiz-adv-x="1107" d="M129 461v151h850v-151h-850z" />
<glyph unicode="&#x2014;" horiz-adv-x="1880" d="M152 461v151h1574v-151h-1574z" />
<glyph unicode="&#x2018;" horiz-adv-x="507" d="M78 1102l289 500q15 -6 110 -50l-237 -524z" />
<glyph unicode="&#x2019;" horiz-adv-x="507" d="M76 1077l239 525l160 -74l-289 -500z" />
<glyph unicode="&#x201a;" horiz-adv-x="544" d="M68 -268l237 524l158 -80l-287 -493z" />
<glyph unicode="&#x201c;" horiz-adv-x="843" d="M84 1106l289 500l110 -50l-239 -524zM389 1106l287 498l108 -52l-235 -524z" />
<glyph unicode="&#x201d;" horiz-adv-x="847" d="M88 1083l238 523l157 -76l-286 -498zM389 1079l238 525l161 -74l-288 -500z" />
<glyph unicode="&#x201e;" horiz-adv-x="860" d="M80 -264l237 522l156 -78l-285 -495zM383 -270l235 524l162 -74l-288 -497z" />
<glyph unicode="&#x2022;" horiz-adv-x="1548" d="M457 784q0 135 94.5 229.5t228.5 94.5q128 0 221 -96t93 -226q0 -134 -93.5 -228.5t-224.5 -94.5q-132 0 -225.5 94t-93.5 227z" />
<glyph unicode="&#x2026;" horiz-adv-x="1566" d="M137 109q0 54 35.5 90.5t89.5 36.5q52 0 88.5 -36t36.5 -89q0 -54 -35.5 -90.5t-89.5 -36.5q-52 0 -88.5 36t-36.5 89zM657 109q0 54 35.5 90.5t89.5 36.5q52 0 88.5 -36t36.5 -89q0 -54 -36.5 -90.5t-90.5 -36.5q-51 0 -87 36.5t-36 88.5zM1178 109q0 54 36 90.5 t91 36.5q53 0 89 -36t36 -89q0 -54 -36.5 -90.5t-90.5 -36.5q-53 0 -89 36t-36 89z" />
<glyph unicode="&#x202f;" horiz-adv-x="404" />
<glyph unicode="&#x2039;" horiz-adv-x="638" d="M76 485l348 428l102 -77l-280 -351l280 -346l-102 -82z" />
<glyph unicode="&#x203a;" horiz-adv-x="638" d="M113 139l280 346l-280 351l100 77l350 -428l-350 -428z" />
<glyph unicode="&#x205f;" horiz-adv-x="505" />
<glyph unicode="&#x20ac;" horiz-adv-x="1576" d="M127 508v117h143q-8 49 -8 112q0 47 4 72h-139v117h154q64 253 260 415t446 162q268 0 463 -149l-66 -137q-72 62 -178 97.5t-219 35.5q-191 0 -336.5 -118.5t-199.5 -305.5h796l-53 -117h-768q-4 -54 -4 -72q0 -50 10 -112h678l-57 -117h-588q66 -171 205.5 -275 t316.5 -104q227 0 375 123v-172q-155 -105 -375 -105q-238 0 -431.5 152t-262.5 381h-166z" />
<glyph unicode="&#x2122;" horiz-adv-x="1695" d="M2 1438v106h580v-106h-230v-774h-123v774h-227zM610 664l181 942l335 -715l334 715l185 -942h-129l-103 571l-287 -619l-284 619l-99 -571h-133z" />
<glyph unicode="&#xe000;" horiz-adv-x="962" d="M0 0v963h963v-963h-963z" />
</font>
</defs>
</svg>
