<?xml version="1.0" standalone="no"?>
<!DOCTYPE svg PUBLIC "-//W3C//DTD SVG 1.1//EN" "http://www.w3.org/Graphics/SVG/1.1/DTD/svg11.dtd" >
<svg xmlns="http://www.w3.org/2000/svg">
<metadata></metadata>
<defs>
<font id="vfuturamedium" horiz-adv-x="1165" >
<font-face units-per-em="2048" ascent="1556" descent="-492" />
<missing-glyph horiz-adv-x="491" />
<glyph unicode="&#xfb01;" horiz-adv-x="1077" d="M70 780v203h137v244q0 104 47 192.5t135.5 141.5t198.5 53q167 0 274 -111t107 -276v-72h-211v72q0 76 -46 129t-124 53q-77 0 -124.5 -53t-47.5 -129v-244h190v-203h-190v-780h-209v780h-137zM762 0v983h207v-983h-207z" />
<glyph unicode="&#xfb02;" horiz-adv-x="1077" d="M70 780v203h137v244q0 104 47 192.5t135.5 141.5t198.5 53q167 0 274 -111t107 -276v-1227h-207v1227q0 75 -47.5 128.5t-126.5 53.5q-77 0 -124.5 -53t-47.5 -129v-244h190v-203h-190v-780h-209v780h-137z" />
<glyph unicode="&#xfb03;" horiz-adv-x="1669" d="M70 780v203h153v88q0 15 -1 74.5t0 79t5.5 67t14 73t28 61t45.5 65.5q47 54 115.5 82.5t147.5 28.5q58 0 133 -19v-203q-46 21 -107 21q-102 0 -145 -78q-16 -30 -21.5 -70t-5.5 -129v-141h367v244q0 104 47 192.5t135.5 141.5t198.5 53q167 0 274 -111t107 -276v-72 h-211v72q0 76 -46 129t-124 53q-77 0 -124.5 -53t-47.5 -129v-244h190v-203h-190v-780h-209v780h-367v-780h-209v780h-153zM1354 0v983h207v-983h-207z" />
<glyph unicode="&#xfb04;" horiz-adv-x="1669" d="M70 780v203h153v88q0 15 -1 74.5t0 79t5.5 67t14 73t28 61t45.5 65.5q47 54 115.5 82.5t147.5 28.5q58 0 133 -19v-203q-46 21 -107 21q-102 0 -145 -78q-16 -30 -21.5 -70t-5.5 -129v-141h367v244q0 104 47 192.5t135.5 141.5t198.5 53q167 0 274 -111t107 -276v-1227 h-207v1227q0 75 -47.5 128.5t-126.5 53.5q-77 0 -124.5 -53t-47.5 -129v-244h190v-203h-190v-780h-209v780h-367v-780h-209v780h-153z" />
<glyph horiz-adv-x="0" />
<glyph horiz-adv-x="0" />
<glyph horiz-adv-x="682" />
<glyph unicode="&#xd;" horiz-adv-x="491" />
<glyph unicode=" "  horiz-adv-x="491" />
<glyph unicode="&#x09;" horiz-adv-x="491" />
<glyph unicode="&#xa0;" horiz-adv-x="491" />
<glyph unicode="!" horiz-adv-x="614" d="M150 96q0 69 44.5 113.5t112.5 44.5q64 0 110 -45.5t46 -108.5q0 -67 -45 -112t-113 -45q-64 0 -109.5 45t-45.5 108zM182 416v1128h248v-1128h-248z" />
<glyph unicode="&#x22;" horiz-adv-x="768" d="M68 1544h254l-43 -620h-170zM446 1544h254l-41 -620h-172z" />
<glyph unicode="#" horiz-adv-x="1323" d="M72 451v163h258l37 285h-240v162h260l55 422h168l-55 -422h272l54 422h163l-51 -422h258v-162h-278l-33 -285h256v-163h-276l-56 -451h-172l58 451h-269l-57 -451h-172l57 451h-237zM502 614h268l35 285h-266z" />
<glyph unicode="$" horiz-adv-x="1576" d="M281 365l215 81q37 -124 114.5 -194t186.5 -74q70 0 124.5 21.5t83.5 55.5t43.5 68.5t14.5 67.5q0 94 -56 155t-221 130q-25 13 -70.5 36t-72.5 36.5t-61.5 33.5t-61.5 39q-76 55 -115.5 130t-39.5 161q0 154 101.5 263.5t276.5 127.5v215h123v-215q104 -13 196.5 -72.5 t160.5 -154.5l-174 -143q-39 71 -102.5 121.5t-147.5 50.5q-100 0 -153.5 -51t-53.5 -124q0 -79 67 -137q23 -18 38 -28t58.5 -31t121.5 -55q215 -87 325 -213q41 -49 67.5 -118.5t26.5 -137.5q0 -171 -118 -289.5t-312 -138.5v-189h-123v187q-167 15 -293 121.5t-169 263.5 z" />
<glyph unicode="%" horiz-adv-x="1527" d="M72 1231q0 136 97.5 230.5t233.5 94.5t234 -94.5t98 -230.5t-98 -231t-234 -95t-233.5 95t-97.5 231zM236 1231q0 -71 48.5 -120.5t118.5 -49.5t119 49.5t49 120.5t-49 120.5t-119 49.5t-118.5 -49.5t-48.5 -120.5zM252 23l905 1562l131 -72l-907 -1556zM793 311 q0 136 97.5 231t233.5 95t234 -95t98 -231t-98 -230.5t-234 -94.5t-233.5 94.5t-97.5 230.5zM956 311q0 -71 49 -120.5t119 -49.5t119 49.5t49 120.5t-49 120.5t-119 49.5t-119 -49.5t-49 -120.5z" />
<glyph unicode="&#x26;" horiz-adv-x="1605" d="M164 399q0 269 332 478q-102 105 -144.5 185t-42.5 165q0 145 112 244.5t273 99.5q162 0 270.5 -98.5t108.5 -245.5q0 -105 -56 -194.5t-194 -194.5l320 -340q64 66 155 200l150 -133q-31 -48 -84.5 -116.5t-83.5 -98.5l326 -350h-297l-168 182q-130 -119 -241 -171 t-259 -52q-109 0 -199.5 35.5t-151 95.5t-93.5 140t-33 169zM393 389q0 -88 79.5 -157.5t180.5 -69.5q86 0 177 46t165 130l-362 389q-79 -52 -128.5 -96.5t-73 -86t-31 -75t-7.5 -80.5zM537 1229q0 -51 33.5 -111.5t97.5 -118.5q87 48 132.5 109t45.5 121q0 65 -42.5 106 t-109.5 41t-112 -42t-45 -105z" />
<glyph unicode="'" horiz-adv-x="387" d="M68 1544h254l-43 -620h-170z" />
<glyph unicode="(" horiz-adv-x="696" d="M152 588q0 571 297 1054l147 -88q-266 -418 -266 -962q0 -549 266 -967l-147 -88q-297 483 -297 1051z" />
<glyph unicode=")" horiz-adv-x="696" d="M98 -375q267 415 267 967q0 547 -267 962l150 88q295 -480 295 -1054q0 -571 -295 -1051z" />
<glyph unicode="*" horiz-adv-x="964" d="M123 1276l45 143l240 -78v250h149v-250l238 78l47 -143l-238 -76l148 -203l-123 -88l-148 201l-145 -201l-123 88l145 203z" />
<glyph unicode="+" horiz-adv-x="1073" d="M4 688v168h440v440h185v-440h440v-168h-440v-440h-185v440h-440z" />
<glyph unicode="," horiz-adv-x="559" d="M31 -201l272 527l197 -113l-332 -492z" />
<glyph unicode="-" horiz-adv-x="751" d="M72 451v196h608v-196h-608z" />
<glyph unicode="." horiz-adv-x="579" d="M133 139q0 67 45.5 112.5t112.5 45.5q64 0 109.5 -45.5t45.5 -110.5q0 -67 -45 -112t-112 -45q-65 0 -110.5 45.5t-45.5 109.5z" />
<glyph unicode="/" horiz-adv-x="1056" d="M0 -47l885 1669h172l-883 -1669h-174z" />
<glyph unicode="0" horiz-adv-x="1087" d="M72 434v604q0 89 36.5 174.5t98.5 150.5t151 104.5t187 39.5q130 0 239.5 -67t170.5 -174.5t61 -227.5v-604q0 -119 -61 -225.5t-170.5 -173t-239.5 -66.5q-131 0 -241 66.5t-171 173t-61 225.5zM291 424q0 -94 77.5 -172t178.5 -78q100 0 174 77.5t74 172.5v627 q0 95 -74.5 172t-177.5 77q-102 0 -177 -77t-75 -172v-627z" />
<glyph unicode="1" horiz-adv-x="768" d="M20 1268l134 198h409v-1466h-221v1268h-322z" />
<glyph unicode="2" horiz-adv-x="1134" d="M31 0l581 668q7 8 33.5 37.5t37 42t34 42t34.5 47.5t27.5 48.5t24.5 55.5t14 57.5t6 64.5q0 102 -62 169.5t-173 67.5q-110 0 -173 -75t-71 -178h-219q8 202 138 331t333 129q190 0 320.5 -129t130.5 -317q0 -116 -50.5 -219t-142.5 -209l-358 -432h557v-201h-1022z" />
<glyph unicode="3" horiz-adv-x="1107" d="M61 375h252q14 -93 79.5 -150t164.5 -57q117 0 188.5 70.5t71.5 187.5q0 65 -33.5 117.5t-85.5 81.5q-59 32 -147 39h-70v206h56q104 0 172.5 57t68.5 158q0 97 -62.5 156t-166.5 59q-53 0 -95.5 -19.5t-66.5 -51t-37.5 -64.5t-15.5 -65h-238q9 177 133 292t320 115 q195 0 321.5 -114.5t126.5 -292.5q0 -102 -51.5 -185t-142.5 -135q110 -48 171.5 -140t61.5 -216q0 -198 -136.5 -328.5t-350.5 -130.5q-199 0 -328.5 111t-159.5 299z" />
<glyph unicode="4" horiz-adv-x="1187" d="M-20 260l954 1313v-1112h172v-201h-172v-260h-215v260h-739zM352 461h367v520z" />
<glyph unicode="5" horiz-adv-x="1126" d="M37 219l172 129q56 -91 129.5 -134.5t175.5 -43.5q138 0 220.5 84.5t82.5 214.5q0 136 -92.5 218.5t-269.5 82.5q-175 0 -314 -94l162 790h660v-209h-490l-63 -311q70 12 120 12q106 0 199.5 -34.5t162.5 -95.5t109.5 -151.5t40.5 -197.5q0 -224 -147 -369t-389 -145 q-141 0 -265.5 68t-203.5 186z" />
<glyph unicode="6" horiz-adv-x="1163" d="M72 444q0 97 29.5 181.5t93.5 173.5q110 149 557 694l163 -129l-354 -440q53 6 84 6q84 0 165.5 -37t143.5 -100t100 -153t38 -189q0 -139 -70.5 -251t-190 -174.5t-262.5 -62.5q-132 0 -246 63t-182.5 174t-68.5 244zM291 444q0 -118 83.5 -198t205.5 -80q126 0 209 85 t83 202q0 119 -85.5 203.5t-211.5 84.5q-125 0 -204.5 -87t-79.5 -210z" />
<glyph unicode="7" horiz-adv-x="1144" d="M82 74l737 1183h-723v209h1121l-949 -1519z" />
<glyph unicode="8" horiz-adv-x="1120" d="M72 403q0 112 61.5 210.5t177.5 158.5q-95 47 -150 134.5t-55 193.5q0 174 127.5 290.5t325.5 116.5t326.5 -117t128.5 -290q0 -105 -55.5 -193t-151.5 -135q116 -60 179 -159t63 -210q0 -185 -138.5 -312.5t-351.5 -127.5t-350 127.5t-137 312.5zM309 416 q0 -109 70 -179.5t180 -70.5t180 70.5t70 179.5q0 107 -70.5 178.5t-179.5 71.5t-179.5 -71.5t-70.5 -178.5zM326 1085q0 -93 65 -154t168 -61t168.5 61t65.5 154t-65.5 155.5t-168.5 62.5t-168 -62t-65 -156z" />
<glyph unicode="9" horiz-adv-x="1157" d="M72 1004q0 131 62.5 244t183 184t272.5 71q111 0 205.5 -39.5t157 -106t97.5 -153.5t35 -182q0 -205 -147 -379l-592 -698l-147 129l397 467q-47 -4 -74 -4q-115 0 -217.5 58t-167.5 167t-65 242zM291 1004q0 -117 81.5 -198t205.5 -81q119 0 202.5 88t83.5 209 q0 120 -80 198t-206 78q-128 0 -207.5 -89.5t-79.5 -204.5z" />
<glyph unicode=":" horiz-adv-x="610" d="M141 139q0 68 44.5 113t113.5 45q63 0 108.5 -46t45.5 -110q0 -67 -45 -112t-113 -45q-63 0 -108.5 45.5t-45.5 109.5zM141 852q0 68 44.5 113t113.5 45q63 0 108.5 -46t45.5 -110q0 -68 -45.5 -113t-112.5 -45q-63 0 -108.5 46t-45.5 110z" />
<glyph unicode=";" horiz-adv-x="610" d="M33 -201l272 527l197 -113l-332 -492zM158 852q0 68 44 113t111 45q65 0 110.5 -46t45.5 -110q0 -68 -45.5 -113t-112.5 -45q-64 0 -108.5 45.5t-44.5 110.5z" />
<glyph unicode="&#x3c;" d="M80 692v178l1003 484v-209l-780 -363l780 -366v-205z" />
<glyph unicode="=" horiz-adv-x="1366" d="M123 518v170h1120v-170h-1120zM123 856v170h1120v-170h-1120z" />
<glyph unicode="&#x3e;" d="M82 211v205l780 366l-780 363v207l1003 -482v-178z" />
<glyph unicode="?" horiz-adv-x="976" d="M102 1196q0 143 70 246q52 74 134.5 110.5t178.5 36.5q168 0 273.5 -102t105.5 -260q0 -125 -86 -230q-46 -55 -103.5 -84.5t-146.5 -56.5q-85 -28 -112 -43q-64 -42 -64 -108q0 -52 32.5 -83.5t88.5 -31.5q65 0 102 40t48 105l217 -2q-12 -68 -43 -149 q-39 -94 -129.5 -149.5t-196.5 -55.5q-58 0 -115 19.5t-107.5 57t-82 101t-31.5 143.5q0 79 29 138q51 113 186 172q18 9 51.5 20.5t38.5 13.5q11 4 35 11.5t38 12t32.5 13.5t32.5 19q10 6 21 14.5t27 25t26 41t10 52.5q-1 3 -3.5 15t-3 15t-3 12t-4 12t-4.5 10.5t-6 12 t-7.5 10.5t-9.5 13q-53 56 -142 56q-81 0 -126 -57t-40 -136h-211zM332 109q0 67 45 112t112 45q65 0 110.5 -45.5t45.5 -109.5q0 -67 -45.5 -112.5t-112.5 -45.5q-64 0 -109.5 45.5t-45.5 110.5z" />
<glyph unicode="@" horiz-adv-x="1701" d="M63 772q0 171 63 323.5t172 263t262 174.5t327 64q221 0 394.5 -87.5t271.5 -249.5t98 -373q0 -242 -118 -401.5t-286 -159.5q-66 0 -114.5 33t-61.5 92q-43 -59 -116 -94t-154 -35q-167 0 -273 118t-106 301q0 101 38.5 188t100 144t137.5 89t152 32q88 0 154 -34.5 t104 -94.5l12 111h156l-62 -525q-6 -47 -6 -98q0 -39 20 -57.5t46 -18.5q66 0 118.5 61.5t78.5 150.5t26 183q0 168 -78.5 302t-217.5 209t-312 75q-137 0 -259 -53t-209.5 -144t-138.5 -217.5t-51 -267.5q0 -194 86.5 -347.5t239.5 -239t344 -85.5q118 0 212 20.5t196 70.5 l77 -119q-127 -63 -241 -93t-244 -30q-176 0 -331 60.5t-266.5 167t-176 259.5t-64.5 332zM612 731q0 -88 55.5 -160.5t149.5 -72.5q105 0 175.5 87.5t70.5 209.5q0 87 -53 148t-148 61q-111 0 -180.5 -84.5t-69.5 -188.5z" />
<glyph unicode="A" horiz-adv-x="1433" d="M-20 0l735 1599l739 -1599h-254l-170 381h-635l-170 -381h-245zM483 584h463l-233 522z" />
<glyph unicode="B" horiz-adv-x="1210" d="M174 0v1544h361q114 0 205 -34t146.5 -90.5t85 -125t29.5 -141.5q0 -210 -165 -319q112 -30 200 -143t88 -242q0 -222 -136.5 -335.5t-381.5 -113.5h-432zM399 201h185q147 0 228 65.5t81 190.5q0 118 -79.5 179.5t-211.5 61.5h-203v-497zM399 913h133q117 0 177.5 53.5 t60.5 157.5q0 105 -63.5 161t-171.5 56h-136v-428z" />
<glyph unicode="C" horiz-adv-x="1423" d="M82 772q0 127 38 248.5t110.5 223.5t170 179.5t225.5 121.5t269 44q268 0 446 -114v-277q-170 176 -442 176q-159 0 -292 -79t-210.5 -217.5t-77.5 -305.5t73 -304.5t206.5 -218.5t300.5 -81q268 0 442 145v-243q-182 -117 -446 -117q-179 0 -332.5 65.5t-258 177 t-163.5 261t-59 315.5z" />
<glyph unicode="D" horiz-adv-x="1478" d="M174 0v1544h283q273 0 450 -58.5t303 -195.5q187 -205 187 -518t-187 -518q-126 -137 -303 -195.5t-450 -58.5h-283zM399 215h56q102 0 174 6t149.5 24t141 55.5t116.5 96.5q121 132 121 375t-121 375q-53 59 -116.5 96.5t-141 55.5t-149.5 24t-174 6h-56v-1114z" />
<glyph unicode="E" horiz-adv-x="1116" d="M174 0v1544h860v-203h-635v-448h602v-201h-602v-491h635v-201h-860z" />
<glyph unicode="F" horiz-adv-x="1083" d="M174 0v1544h827v-203h-602v-448h588v-201h-588v-692h-225z" />
<glyph unicode="G" horiz-adv-x="1759" d="M82 772q0 224 104.5 411.5t291.5 297.5t417 110q220 0 386.5 -86.5t301.5 -263.5l-186 -141q-102 143 -225 210.5t-277 67.5q-167 0 -299.5 -82t-204.5 -220t-72 -304q0 -136 50 -252.5t132 -192.5t184.5 -118.5t209.5 -42.5q209 0 348.5 112t173.5 306h-387v200h658 q-10 -249 -105 -435.5t-272 -291t-416 -104.5q-141 0 -268 43t-225.5 120.5t-171 179.5t-110.5 224.5t-38 251.5z" />
<glyph unicode="H" horiz-adv-x="1517" d="M174 0v1544h225v-635h719v635h225v-1544h-225v700h-719v-700h-225z" />
<glyph unicode="I" horiz-adv-x="573" d="M174 0v1544h225v-1544h-225z" />
<glyph unicode="J" horiz-adv-x="901" d="M0 125l137 170q35 -48 86 -76.5t99 -28.5t84.5 15t58 37.5t35 53.5t18 59t4.5 57v1132h226v-1151q0 -80 -25 -153t-74 -133.5t-132 -96t-189 -35.5q-101 0 -185.5 43.5t-142.5 106.5z" />
<glyph unicode="K" horiz-adv-x="1304" d="M174 0v1544h225v-586l625 586h291l-723 -676l733 -868h-285l-598 715l-43 -45v-670h-225z" />
<glyph unicode="L" horiz-adv-x="997" d="M174 0v1544h225v-1343h578v-201h-803z" />
<glyph unicode="M" horiz-adv-x="1800" d="M20 0l388 1593l493 -1104l494 1104l385 -1593h-242l-217 930l-422 -955l-424 955l-215 -930h-240z" />
<glyph unicode="N" horiz-adv-x="1708" d="M174 0v1573l1135 -1079v1050h225v-1575l-1135 1084v-1053h-225z" />
<glyph unicode="O" horiz-adv-x="1773" d="M82 772q0 163 59 312t163 261t256 179t327 67t327 -67t256 -179t163 -261t59 -312t-59 -312t-163 -261t-256 -179t-327 -67t-327 67t-256 179t-163 261t-59 312zM322 772q0 -170 72.5 -308t202.5 -217t290 -79t290 79t202.5 217t72.5 308t-72.5 308t-202.5 217t-290 79 t-290 -79t-202.5 -217t-72.5 -308z" />
<glyph unicode="P" horiz-adv-x="1124" d="M174 0v1544h401q144 0 259 -53.5t182 -156t67 -236.5q0 -211 -136.5 -329t-364.5 -118h-183v-651h-225zM399 866h176q135 0 206 59t71 169q0 107 -71 169t-206 62h-176v-459z" />
<glyph unicode="Q" horiz-adv-x="1773" d="M82 772q0 163 59 312t163 261t256 179t327 67t327 -67t256 -179t163 -261t59 -312q0 -172 -65.5 -328t-184.5 -272l237 -260h-284l-123 135q-177 -94 -385 -94q-175 0 -327 67t-256 179t-163 261t-59 312zM322 772q0 -170 72.5 -308t202.5 -217t290 -79q127 0 231 49 l-319 356h278l213 -233q162 177 162 432q0 170 -72.5 308t-202.5 217t-290 79t-290 -79t-202.5 -217t-72.5 -308z" />
<glyph unicode="R" horiz-adv-x="1208" d="M174 0v1544h225q218 0 314.5 -17t169.5 -69q92 -61 141 -154t49 -206q0 -155 -85.5 -268.5t-233.5 -153.5l444 -676h-272l-420 651h-107v-651h-225zM399 866h121q52 0 71.5 1t62.5 6.5t74 21.5t58 43q56 59 56 156q0 68 -31 120.5t-86 79.5q-39 19 -87 25t-149 6h-90 v-459z" />
<glyph unicode="S" horiz-adv-x="1210" d="M61 369l218 88q38 -133 124.5 -209.5t202.5 -79.5q128 0 204.5 63t76.5 156q0 171 -166 252l-293 145q-278 138 -281 390q0 179 134 298t329 119q140 0 260.5 -69.5t192.5 -186.5l-184 -143q-41 74 -112 129t-163 55q-103 0 -161 -56.5t-58 -135.5q0 -116 150 -193 l284 -143q153 -77 232 -194t79 -248q0 -55 -13.5 -111.5t-51 -119.5t-94 -111t-152.5 -79.5t-217 -31.5q-198 0 -344 116.5t-197 299.5z" />
<glyph unicode="T" horiz-adv-x="1060" d="M0 1341v203h1061v-203h-418v-1341h-225v1341h-418z" />
<glyph unicode="U" horiz-adv-x="1488" d="M154 539v1005h225v-1005q0 -167 100 -269t266 -102q165 0 265 102.5t100 268.5v1005h225v-1005q0 -170 -67.5 -301.5t-202.5 -208t-320 -76.5q-186 0 -321 76.5t-202.5 207.5t-67.5 302z" />
<glyph unicode="V" horiz-adv-x="1382" d="M-10 1544h252l456 -1073l455 1073h240l-701 -1612z" />
<glyph unicode="W" horiz-adv-x="2105" d="M-10 1544h248l393 -1048l424 1048l438 -1048l399 1048h224l-611 -1614l-450 1088l-453 -1088z" />
<glyph unicode="X" horiz-adv-x="1243" d="M0 0l494 803l-439 741h271l309 -536l315 536h250l-450 -741l493 -803h-274l-353 598l-356 -598h-260z" />
<glyph unicode="Y" horiz-adv-x="1243" d="M-20 1544h247l406 -639l397 639h234l-523 -848v-696h-225v672z" />
<glyph unicode="Z" horiz-adv-x="1253" d="M41 0l793 1341h-711v203h1079l-782 -1343h762v-201h-1141z" />
<glyph unicode="[" horiz-adv-x="696" d="M240 -487v2091h387v-174h-201v-1743h201v-174h-387z" />
<glyph unicode="\" horiz-adv-x="1056" d="M0 1622h172l885 -1669h-174z" />
<glyph unicode="]" horiz-adv-x="696" d="M72 -307h194v1734h-194v179h385v-2091h-385v178z" />
<glyph unicode="^" d="M47 823l399 725h273l399 -725h-223l-311 561l-314 -561h-223z" />
<glyph unicode="_" d="M4 -137h1157v-189h-1157v189z" />
<glyph unicode="`" d="M391 1432l189 51l227 -309l-148 -41z" />
<glyph unicode="a" horiz-adv-x="1243" d="M72 485q0 146 64.5 266t180 189.5t258.5 69.5q102 0 192 -44.5t134 -117.5v135h209v-983h-209v143q-43 -78 -134.5 -123t-197.5 -45q-135 0 -250 70t-181 187.5t-66 252.5zM289 492q0 -136 87 -226t214 -90t212 93.5t85 222.5q0 131 -86.5 223t-216.5 92 q-129 0 -212 -92.5t-83 -222.5z" />
<glyph unicode="b" horiz-adv-x="1239" d="M133 0v1604h209v-756q48 72 136.5 117t189.5 45q143 0 257.5 -69t178 -187t63.5 -260q0 -140 -64 -259t-179.5 -189.5t-255.5 -70.5q-100 0 -187.5 43.5t-138.5 118.5v-137h-209zM350 494q0 -132 88 -225t213 -93q134 0 215.5 90.5t81.5 225.5q0 133 -83 224t-218 91 q-126 0 -211.5 -90t-85.5 -223z" />
<glyph unicode="c" horiz-adv-x="960" d="M72 487q0 147 69 267t187.5 188t261.5 68q152 0 278 -74v-227q-67 53 -128 74.5t-132 21.5q-135 0 -226 -88t-91 -225q0 -138 91 -227t226 -89q71 0 132 21.5t128 74.5v-225q-124 -76 -278 -76q-218 0 -368 147.5t-150 368.5z" />
<glyph unicode="d" horiz-adv-x="1236" d="M72 485q0 223 141.5 374t357.5 151q205 0 324 -162v743h209v-1591h-209v143q-44 -78 -134 -123t-196 -45q-135 0 -249 70t-179 187.5t-65 252.5zM289 492q0 -136 85 -226t212 -90q126 0 210.5 93.5t84.5 222.5q0 131 -85.5 223t-215.5 92q-128 0 -209.5 -92.5 t-81.5 -222.5z" />
<glyph unicode="e" horiz-adv-x="1142" d="M72 496q0 138 62.5 255t178 188t260.5 71q209 0 353 -144q80 -81 117.5 -193.5t37.5 -232.5h-778q1 -113 85.5 -189.5t203.5 -76.5q170 0 264 156l168 -121q-70 -113 -185 -173.5t-245 -60.5q-223 0 -372.5 147t-149.5 374zM322 614h499q-19 90 -85 143.5t-163 53.5 q-99 0 -164.5 -57.5t-86.5 -139.5z" />
<glyph unicode="f" horiz-adv-x="722" d="M41 791v192h154v88q0 15 -1 75v49v29q1 20 5.5 67.5t14 73t28 61t45.5 65.5q97 111 262 111q58 0 133 -19v-203q-46 21 -107 21q-102 0 -145 -78q-16 -30 -21.5 -70t-5.5 -129v-141h279v-192h-279v-791h-208v791h-154z" />
<glyph unicode="g" horiz-adv-x="1239" d="M72 500q0 135 65 252t182.5 187.5t260.5 70.5q199 0 317 -162v135h209v-922q0 -277 -133 -412.5t-373 -135.5q-190 0 -323.5 104.5t-155.5 267.5h229q25 -82 90.5 -127t159.5 -45q85 0 145.5 30t92 82.5t45.5 110.5t14 127v87q-118 -162 -319 -162q-141 0 -257.5 69.5 t-182.5 187t-66 255.5zM291 498q0 -131 86 -219.5t211 -88.5q124 0 209.5 88.5t85.5 219.5q0 133 -86.5 221t-214.5 88q-121 0 -206 -89.5t-85 -219.5z" />
<glyph unicode="h" horiz-adv-x="1114" d="M133 0v1593h209v-733q53 71 131 110.5t156 39.5q180 0 273 -110.5t93 -301.5v-598h-207v539q0 62 -9 107.5t-31 84t-65 58.5t-105 20q-89 0 -148.5 -57.5t-75.5 -143.5q-1 -6 -3.5 -23t-4 -31.5t-3 -56.5t-1.5 -104v-393h-209z" />
<glyph unicode="i" horiz-adv-x="473" d="M90 1395q0 62 44 104.5t108 42.5q60 0 101.5 -43.5t41.5 -103.5q0 -61 -42.5 -104.5t-102.5 -43.5q-63 0 -106.5 43t-43.5 105zM133 0v983h207v-983h-207z" />
<glyph unicode="j" horiz-adv-x="473" d="M-98 -254q67 -31 112 -31q32 0 55 8.5t35 21.5t19 34t8.5 38.5t1.5 43.5v1122h207v-1067v-18q0 -62 -1.5 -93.5t-8 -77.5t-23.5 -79.5t-45 -63.5q-67 -73 -211 -73q-29 0 -73.5 10t-75.5 24v201zM90 1395q0 62 44 104.5t108 42.5q60 0 101.5 -43.5t41.5 -103.5 q0 -61 -42.5 -104.5t-102.5 -43.5q-63 0 -106.5 43t-43.5 105z" />
<glyph unicode="k" horiz-adv-x="1028" d="M133 0v1593h209v-999l410 389h266l-440 -416l440 -567h-256l-330 434l-90 -88v-346h-209z" />
<glyph unicode="l" horiz-adv-x="473" d="M133 0v1593h207v-1593h-207z" />
<glyph unicode="m" horiz-adv-x="1656" d="M133 0v983h209v-129q43 77 113.5 116.5t156.5 39.5q94 0 167.5 -48t111.5 -139q101 187 311 187q65 0 123.5 -22t107 -65.5t77 -116.5t28.5 -167v-639h-209v541q0 86 -9.5 134.5t-41.5 80.5q-45 51 -129 51q-58 0 -104.5 -33t-69.5 -84q-19 -42 -27 -92t-8 -139v-459 h-207v541q0 86 -9.5 134.5t-41.5 80.5q-45 51 -129 51q-58 0 -104.5 -33t-69.5 -84q-19 -42 -27 -92t-8 -139v-459h-211z" />
<glyph unicode="n" horiz-adv-x="1114" d="M133 0v983h209v-123q53 71 131 110.5t156 39.5q175 0 270.5 -117t95.5 -295v-598h-207v528q0 80 -11.5 133t-49.5 93q-52 55 -149 55q-89 0 -148.5 -57.5t-75.5 -143.5q-1 -6 -3.5 -23t-4 -31.5t-3 -56.5t-1.5 -104v-393h-209z" />
<glyph unicode="o" horiz-adv-x="1169" d="M72 492q0 143 67.5 261.5t187 187.5t265.5 69q140 0 256.5 -67.5t183 -185.5t66.5 -259q0 -144 -67.5 -264t-187 -189.5t-265.5 -69.5q-140 0 -256.5 69.5t-183 188t-66.5 259.5zM291 498q0 -135 84 -228.5t213 -93.5q124 0 207.5 91.5t83.5 224.5q0 135 -84 225t-213 90 q-124 0 -207.5 -89t-83.5 -220z" />
<glyph unicode="p" horiz-adv-x="1239" d="M133 -487v1470h209v-135q113 162 326 162q140 0 255.5 -72t179.5 -190.5t64 -255.5q0 -143 -64.5 -261.5t-179 -187t-255.5 -68.5q-100 0 -187 41.5t-139 120.5v-624h-209zM350 492q0 -134 85.5 -225t211.5 -91q135 0 218 92t83 226q0 135 -81.5 224t-215.5 89 q-125 0 -213 -92.5t-88 -222.5z" />
<glyph unicode="q" horiz-adv-x="1239" d="M72 492q0 137 64 255.5t179.5 190.5t255.5 72q99 0 187.5 -43t138.5 -119v135h209v-1470h-209v624q-52 -79 -139 -120.5t-187 -41.5q-141 0 -255.5 68.5t-179 187t-64.5 261.5zM291 494q0 -135 82.5 -226.5t218.5 -91.5q125 0 211 91.5t86 224.5q0 130 -88 222.5 t-213 92.5q-135 0 -216 -89t-81 -224z" />
<glyph unicode="r" horiz-adv-x="714" d="M133 0v983h203v-121q76 150 258 150q54 0 96 -17l-12 -219q-49 21 -117 21q-96 0 -153 -66q-37 -41 -51.5 -94.5t-14.5 -130.5v-506h-209z" />
<glyph unicode="s" horiz-adv-x="845" d="M61 180l166 119q30 -60 82 -96.5t115 -36.5q60 0 96.5 31t36.5 82q0 72 -94 116l-146 70q-192 89 -192 264q0 110 87 195.5t232 85.5q177 0 299 -146l-141 -137q-77 94 -151 94q-45 0 -78 -24.5t-33 -65.5q0 -56 82 -94l125 -59q120 -57 173.5 -132.5t53.5 -173.5 q0 -53 -20 -103t-60.5 -95t-112 -72t-163.5 -27q-116 0 -209.5 55.5t-147.5 149.5z" />
<glyph unicode="t" horiz-adv-x="655" d="M41 791v192h164v367h209v-367h211v-192h-211v-791h-209v791h-164z" />
<glyph unicode="u" horiz-adv-x="1103" d="M119 485v498h207v-537q0 -134 47 -190q65 -80 178 -80q115 0 180 80q47 56 47 190v537h207v-498q0 -119 -9 -174.5t-34 -109.5q-51 -107 -153.5 -166.5t-239.5 -59.5t-236 59t-151 167q-25 54 -34 109.5t-9 174.5z" />
<glyph unicode="v" horiz-adv-x="1017" d="M0 983h238l274 -600l276 600h230l-510 -1057z" />
<glyph unicode="w" horiz-adv-x="1538" d="M0 983h221l244 -584l301 592l305 -594l252 586h215l-465 -1055l-307 645l-322 -645z" />
<glyph unicode="x" horiz-adv-x="1058" d="M0 0l397 530l-336 453h254l220 -299l217 299h245l-340 -453l402 -530h-264l-267 377l-274 -377h-254z" />
<glyph unicode="y" horiz-adv-x="1087" d="M0 983h244l297 -610l327 610h230l-783 -1472h-237l342 643z" />
<glyph unicode="z" horiz-adv-x="1021" d="M31 0l577 791h-479v192h862l-573 -790h553v-193h-940z" />
<glyph unicode="{" horiz-adv-x="696" d="M61 487v152q100 44 128 86t28 145v435q0 49 19.5 100.5t55 96.5t94 73.5t128.5 28.5h127v-179h-100q-70 0 -100.5 -43t-30.5 -110v-436q0 -113 -32 -175.5t-122 -97.5q90 -35 122 -97t32 -175v-436q0 -68 30.5 -111t100.5 -43h100v-178h-127q-70 0 -128.5 28.5t-94 73.5 t-55 96.5t-19.5 100.5v434q0 103 -28 145t-128 86z" />
<glyph unicode="|" horiz-adv-x="1005" d="M410 -483v2089h186v-2089h-186z" />
<glyph unicode="}" horiz-adv-x="696" d="M55 -299h101q70 0 100.5 43t30.5 111v436q0 114 31.5 175.5t121.5 96.5q-90 35 -121.5 97t-31.5 176v436q0 67 -30.5 110t-100.5 43h-101v179h127q70 0 128.5 -28.5t94 -73.5t55 -96.5t19.5 -100.5v-435q0 -103 28 -145t128 -86v-152q-100 -44 -128 -86t-28 -145v-434 q0 -49 -19.5 -100.5t-55 -96.5t-94 -73.5t-128.5 -28.5h-127v178z" />
<glyph unicode="~" horiz-adv-x="1552" d="M217 1411q40 80 90 158q94 125 236 125q84 0 256 -74q111 -46 144.5 -57t72.5 -11q61 0 103 31t93 115l123 -72q-42 -85 -73.5 -129t-75.5 -76q-87 -69 -197 -69q-45 0 -109 21t-218 87q-81 35 -136 35q-57 0 -99.5 -36.5t-88.5 -125.5z" />
<glyph unicode="&#xa1;" horiz-adv-x="614" d="M150 885q0 67 45.5 112t113.5 45q63 0 108.5 -45.5t45.5 -109.5q0 -67 -45.5 -112.5t-112.5 -45.5q-64 0 -109.5 45.5t-45.5 110.5zM182 -553v1126h248v-1126h-248z" />
<glyph unicode="&#xa2;" horiz-adv-x="1576" d="M348 729q0 200 129 344.5t322 171.5v240h123v-236q120 -12 223 -71v-228q-69 54 -125 75.5t-125 21.5q-136 0 -232 -89t-96 -225q0 -137 96 -226t232 -89q70 0 126 21.5t124 74.5v-225q-103 -65 -223 -74v-217h-123v219q-193 27 -322 169.5t-129 342.5z" />
<glyph unicode="&#xa3;" horiz-adv-x="1576" d="M301 0v219h172v467h-172v172h172v199q0 88 27 167t78 142t134.5 100t188.5 37q158 0 271 -86t155 -217l-215 -84q-20 80 -76.5 131t-140.5 51q-96 0 -150.5 -64.5t-54.5 -174.5v-201h352v-172h-352v-477h682v-209h-1071z" />
<glyph unicode="&#xa4;" horiz-adv-x="1552" d="M457 782q0 135 95 228.5t232 93.5q128 0 221 -95t93 -225q0 -133 -93.5 -227t-224.5 -94q-132 0 -227.5 93.5t-95.5 225.5z" />
<glyph unicode="&#xa5;" horiz-adv-x="1576" d="M172 1485h248l379 -617h2l375 617h231l-420 -672h342v-141h-420v-168h420v-142h-420v-362h-225v362h-434v142h434v168h-434v141h346z" />
<glyph unicode="&#xa6;" d="M479 354h207v-741h-207v741zM479 764v780h207v-780h-207z" />
<glyph unicode="&#xa7;" horiz-adv-x="1245" d="M154 -190l188 96q28 -95 101 -147t167 -52q118 0 172 56.5t54 136.5q0 51 -24.5 88.5t-72.5 74.5q-49 36 -182.5 103.5t-194.5 109.5q-80 56 -126 134.5t-46 169.5q0 112 60 202t153 131q-79 47 -123 120t-44 165q0 85 36.5 158t97.5 122t139 77t161 28q135 0 241 -64.5 t158 -183.5l-180 -100q-26 69 -87 111t-136 45q-92 0 -157 -49t-65 -140q0 -44 22 -82.5t59.5 -67.5t86.5 -55.5t102.5 -53t107 -54.5t102.5 -64t86.5 -78t59.5 -100.5t22 -126.5q0 -102 -48 -182t-133 -131q67 -50 104.5 -126t37.5 -167q0 -180 -131.5 -290.5 t-325.5 -110.5q-154 0 -273 85t-169 212zM385 618q0 -48 16.5 -85.5t49.5 -65t59.5 -43.5t69.5 -38l18 -9l168 -88q55 36 92 92.5t37 116.5q0 42 -15 76.5t-44.5 61.5t-55 44t-63.5 37l-170 90q-61 -18 -111.5 -68t-50.5 -121z" />
<glyph unicode="&#xa8;" d="M205 1264q0 61 42.5 103t102.5 42q62 0 104 -42t42 -103t-43 -102.5t-105 -41.5q-60 0 -101.5 41.5t-41.5 102.5zM674 1266q0 62 42 103.5t105 41.5q58 0 100 -41t42 -102q0 -60 -43 -103t-103 -43q-61 0 -102 42t-41 102z" />
<glyph unicode="&#xa9;" horiz-adv-x="1716" d="M57 770q0 168 64 322t180 262q121 111 274 173t312 62q152 0 294.5 -66.5t246.5 -177.5t166.5 -262t62.5 -313q0 -167 -63 -318.5t-170 -260.5t-255 -173.5t-311 -64.5q-161 0 -309.5 65t-256 174.5t-171.5 261t-64 316.5zM186 770q0 -189 90 -350.5t245 -255.5t337 -94 q183 0 337 94.5t243.5 257t89.5 354.5q0 140 -53.5 268.5t-143 222.5t-213.5 150t-258 56q-123 0 -249 -54.5t-218 -146.5q-100 -97 -153.5 -227t-53.5 -275zM385 772q0 206 147 349t363 143q159 0 289 -80v-180q-116 116 -287 116q-147 0 -249.5 -101t-102.5 -247 q0 -147 102.5 -247.5t249.5 -100.5q168 0 287 119v-181q-138 -81 -289 -81q-216 0 -363 142.5t-147 348.5z" />
<glyph unicode="&#xaa;" horiz-adv-x="870" d="M86 1231q0 137 91 233.5t222 96.5q61 0 106.5 -21t88.5 -67v71h141v-618h-141v71q-45 -49 -89 -68.5t-108 -19.5q-131 0 -221 94t-90 228zM231 1233q0 -76 52.5 -131t126.5 -55t125 54t51 132q0 81 -52 135.5t-126 54.5t-125.5 -55.5t-51.5 -134.5z" />
<glyph unicode="&#xab;" horiz-adv-x="1069" d="M74 492l387 491l135 -94l-307 -397l307 -390l-135 -102zM438 492l389 491l136 -98l-312 -393l312 -390l-136 -102z" />
<glyph unicode="&#xac;" horiz-adv-x="1552" d="M-29 684v211h1057v-649h-227v438h-830z" />
<glyph unicode="&#xad;" horiz-adv-x="751" d="M72 451v196h608v-196h-608z" />
<glyph unicode="&#xae;" horiz-adv-x="1716" d="M57 770q0 221 108 409.5t293.5 299t403.5 110.5q161 0 308.5 -65t254 -174.5t169.5 -261t63 -318.5t-63 -318.5t-170 -260.5t-255 -173.5t-311 -64.5q-218 0 -402.5 110t-291.5 298t-107 409zM186 772q0 -190 90 -352t245 -256t337 -94q183 0 337 94.5t243.5 257 t89.5 354.5q0 145 -53.5 274.5t-145 222.5t-219 147.5t-270.5 54.5q-130 0 -251 -56.5t-209 -151t-141 -224.5t-53 -271zM586 307v926h149q139 0 199.5 -8.5t105.5 -36.5q123 -70 123 -221q0 -95 -58 -162.5t-155 -91.5l291 -406h-180l-281 391h-39v-391h-155zM741 834h33 q115 0 154 16q73 30 73 111q0 139 -178 139h-82v-266z" />
<glyph unicode="&#xaf;" d="M205 1214v138h758v-138h-758z" />
<glyph unicode="&#xb0;" horiz-adv-x="841" d="M113 1257q0 128 90.5 219t220.5 91q127 0 217 -90t90 -220t-90 -219.5t-217 -89.5q-130 0 -220.5 90.5t-90.5 218.5zM258 1257q0 -71 48.5 -120.5t117.5 -49.5q67 0 114.5 51t47.5 119t-47.5 119t-114.5 51q-69 0 -117.5 -49.5t-48.5 -120.5z" />
<glyph unicode="&#xb1;" horiz-adv-x="1304" d="M119 23v170h1065v-170h-1065zM119 717v170h440v438h186v-438h439v-170h-439v-410h-186v410h-440z" />
<glyph unicode="&#xb2;" horiz-adv-x="862" d="M51 614l391 418q85 90 115.5 140.5t30.5 107.5q0 48 -37.5 88.5t-99.5 40.5q-68 0 -110 -51.5t-42 -110.5h-170q6 134 93.5 228t223.5 94q137 0 224.5 -78.5t87.5 -212.5q0 -131 -117 -264l-225 -246h350v-154h-715z" />
<glyph unicode="&#xb3;" horiz-adv-x="862" d="M90 881h189q20 -140 147 -140q72 0 116 42t44 108q0 34 -17 64t-43 46q-46 21 -133 23v150q166 0 166 120q0 56 -37 89.5t-98 33.5q-123 0 -133 -137h-178q6 130 88.5 209.5t220.5 79.5q137 0 222 -74.5t85 -194.5q0 -115 -104 -192q61 -34 96 -91t35 -128 q0 -130 -94.5 -214.5t-239.5 -84.5q-141 0 -229 78t-103 213z" />
<glyph unicode="&#xb4;" d="M420 1174l227 309l191 -51l-269 -299z" />
<glyph unicode="&#xb5;" d="M102 -489v1472h217v-537q0 -133 48 -190q65 -80 178 -80q115 0 180 80q47 56 47 190v537h207v-498q0 -119 -9 -174.5t-34 -109.5q-51 -107 -153.5 -166.5t-239.5 -59.5q-131 0 -232 56v-520h-209z" />
<glyph unicode="&#xb6;" horiz-adv-x="1204" d="M57 1151q0 162 124 277.5t327 115.5h491l-2 -170v-1628h-174v1628h-174v-1628h-172v1026h-53q-151 0 -259 110.5t-108 268.5z" />
<glyph unicode="&#xb7;" horiz-adv-x="546" d="M117 492q0 67 44.5 111t112.5 44q65 0 110.5 -44.5t45.5 -108.5q0 -68 -45 -113t-113 -45q-64 0 -109.5 45.5t-45.5 110.5z" />
<glyph unicode="&#xb8;" d="M340 -385l252 279l123 -60l-213 -291z" />
<glyph unicode="&#xb9;" horiz-adv-x="862" d="M182 1397l103 147h258v-930h-168v783h-193z" />
<glyph unicode="&#xba;" horiz-adv-x="870" d="M111 1235q0 138 95 232t236 94q133 0 227.5 -95.5t94.5 -226.5q0 -136 -96.5 -232t-231.5 -96q-134 0 -229.5 95.5t-95.5 228.5zM258 1235q0 -75 52.5 -130.5t125.5 -55.5q74 0 126 55t52 131q0 82 -51.5 135t-128.5 53q-73 0 -124.5 -55t-51.5 -133z" />
<glyph unicode="&#xbb;" horiz-adv-x="1069" d="M104 102l310 390l-310 393l134 98l389 -491l-389 -492zM471 102l305 390l-305 397l135 94l387 -491l-387 -492z" />
<glyph unicode="&#xbc;" horiz-adv-x="2093" d="M180 1397l103 147h258v-930h-168v783h-193zM510 2l893 1542h160l-893 -1544zM1225 162l665 858v-711h113v-147h-113v-162h-166v162h-499zM1518 309h206v273q-38 -48 -105.5 -139.5t-100.5 -133.5z" />
<glyph unicode="&#xbd;" horiz-adv-x="2093" d="M180 1397l103 147h258v-930h-168v783h-193zM489 2l893 1542h160l-893 -1544zM1272 0l389 418q88 91 118.5 140.5t30.5 107.5q0 48 -38 88.5t-101 40.5q-67 0 -108 -52t-41 -112h-172q6 135 93.5 228t223.5 93q138 0 224.5 -77t86.5 -211q0 -135 -114 -265l-228 -245h351 v-154h-715z" />
<glyph unicode="&#xbe;" horiz-adv-x="2093" d="M90 881h189q20 -140 147 -140q72 0 116 42t44 108q0 34 -17 64t-43 46q-46 21 -133 23v150q166 0 166 120q0 56 -37 89.5t-98 33.5q-123 0 -133 -137h-178q6 130 88.5 209.5t220.5 79.5q137 0 222 -74.5t85 -194.5q0 -115 -104 -192q61 -34 96 -91t35 -128 q0 -130 -94.5 -214.5t-239.5 -84.5q-141 0 -229 78t-103 213zM510 2l893 1542h160l-893 -1544zM1059 180l686 840v-690h117v-150h-117v-180h-164v180h-522zM1374 330h207v254z" />
<glyph unicode="&#xbf;" horiz-adv-x="976" d="M113 -190q0 124 86 229q46 55 103.5 84.5t146.5 56.5q85 28 112 43q64 42 64 109q0 52 -32.5 83t-88.5 31q-65 0 -102 -40t-48 -105l-217 2q13 70 43 150q39 94 129.5 149t196.5 55q58 0 115 -19.5t107.5 -57t82 -101t31.5 -143.5q0 -78 -29 -137q-51 -113 -186 -172 q-1 -1 -90 -35q-12 -4 -35.5 -11t-37.5 -12t-32.5 -13.5t-32.5 -18.5q-10 -6 -21.5 -15t-27 -25.5t-25.5 -41t-10 -52.5q1 -3 3.5 -15t3 -15t3 -12t4 -12t4.5 -10.5t6 -12t7.5 -10.5t9.5 -13q52 -55 142 -55q81 0 126 56.5t40 135.5h210q0 -145 -69 -246 q-52 -74 -134.5 -110.5t-178.5 -36.5q-168 0 -273.5 102.5t-105.5 260.5zM332 926q0 68 45 112.5t112 44.5q65 0 110.5 -45.5t45.5 -109.5q0 -68 -45.5 -113t-112.5 -45q-64 0 -109.5 45.5t-45.5 110.5z" />
<glyph unicode="&#xc0;" horiz-adv-x="1433" d="M-20 0l735 1599l739 -1599h-254l-170 381h-635l-170 -381h-245zM483 584h463l-233 522zM508 1927l123 137l303 -278l-94 -103z" />
<glyph unicode="&#xc1;" horiz-adv-x="1433" d="M-20 0l735 1599l739 -1599h-254l-170 381h-635l-170 -381h-245zM483 584h463l-233 522zM532 1788l304 278l122 -137l-331 -243z" />
<glyph unicode="&#xc2;" horiz-adv-x="1433" d="M-20 0l735 1599l739 -1599h-254l-170 381h-635l-170 -381h-245zM389 1743l324 307l321 -307l-110 -101l-211 199l-213 -199zM483 584h463l-233 522z" />
<glyph unicode="&#xc3;" horiz-adv-x="1433" d="M-20 0l735 1599l739 -1599h-254l-170 381h-635l-170 -381h-245zM348 1794q32 69 89.5 108.5t127.5 39.5q43 0 75.5 -11.5t121.5 -58.5q51 -19 74 -19q41 0 63.5 20t52.5 79l90 -101q-34 -68 -90.5 -106.5t-124.5 -38.5q-39 0 -69.5 10t-104.5 47q-60 29 -88 29 q-42 0 -67.5 -22t-46.5 -74zM483 584h463l-233 522z" />
<glyph unicode="&#xc4;" horiz-adv-x="1433" d="M-20 0l735 1599l739 -1599h-254l-170 381h-635l-170 -381h-245zM322 1802q0 62 42 104t103 42q60 0 101.5 -42.5t41.5 -103.5q0 -60 -42.5 -101.5t-102.5 -41.5q-61 0 -102 41.5t-41 101.5zM483 584h463l-233 522zM788 1804q0 62 43 105t105 43q59 0 100 -42t41 -102 q0 -62 -42 -104.5t-103 -42.5t-102.5 41.5t-41.5 101.5z" />
<glyph unicode="&#xc5;" horiz-adv-x="1433" d="M-20 0l677 1475q-80 21 -131 84.5t-51 148.5q0 100 70.5 170t171.5 70q98 0 167.5 -71.5t69.5 -168.5q0 -85 -51 -148.5t-131 -84.5l682 -1475h-254l-170 381h-635l-170 -381h-245zM483 584h463l-233 522zM606 1708q0 -44 32.5 -76.5t76.5 -32.5t75 32t31 77 q0 44 -31 75.5t-75 31.5t-76.5 -31.5t-32.5 -75.5z" />
<glyph unicode="&#xc6;" horiz-adv-x="2062" d="M4 0l690 1544h680l96 -203h-606l205 -448h576l114 -201h-594l215 -491h598l111 -201h-875l-176 381h-628l-168 -381h-238zM498 584h456l-231 522z" />
<glyph unicode="&#xc7;" horiz-adv-x="1423" d="M82 772q0 127 38 248.5t110.5 223.5t170 179.5t225.5 121.5t269 44q268 0 446 -114v-277q-170 176 -442 176q-159 0 -292 -79t-210.5 -217.5t-77.5 -305.5t73 -304.5t206.5 -218.5t300.5 -81q268 0 442 145v-243q-182 -117 -446 -117q-179 0 -332.5 65.5t-258 177 t-163.5 261t-59 315.5zM604 -418l270 297l132 -63l-228 -312z" />
<glyph unicode="&#xc8;" horiz-adv-x="1116" d="M174 0v1544h860v-203h-635v-448h602v-201h-602v-491h635v-201h-860zM385 1927l123 137l303 -278l-94 -103z" />
<glyph unicode="&#xc9;" horiz-adv-x="1116" d="M174 0v1544h860v-203h-635v-448h602v-201h-602v-491h635v-201h-860zM449 1786l303 278l122 -137l-331 -244z" />
<glyph unicode="&#xca;" horiz-adv-x="1116" d="M174 0v1544h860v-203h-635v-448h602v-201h-602v-491h635v-201h-860zM289 1743l323 307l322 -307l-111 -101l-211 199l-213 -199z" />
<glyph unicode="&#xcb;" horiz-adv-x="1116" d="M174 0v1544h860v-203h-635v-448h602v-201h-602v-491h635v-201h-860zM233 1802q0 61 43 103.5t103 42.5q61 0 102 -42t41 -104q0 -60 -42 -101.5t-103 -41.5t-102.5 41.5t-41.5 101.5zM700 1804q0 62 43 105t105 43q59 0 100 -42t41 -102q0 -62 -42 -104.5t-103 -42.5 q-60 0 -102 41.5t-42 101.5z" />
<glyph unicode="&#xcc;" horiz-adv-x="573" d="M-27 1923l123 137l303 -278l-94 -103zM174 0v1544h225v-1544h-225z" />
<glyph unicode="&#xcd;" horiz-adv-x="573" d="M174 0v1544h225v-1544h-225zM174 1780l303 278l123 -137l-332 -244z" />
<glyph unicode="&#xce;" horiz-adv-x="573" d="M-41 1743l326 307l321 -307l-112 -101l-209 199l-213 -199zM174 0v1544h225v-1544h-225z" />
<glyph unicode="&#xcf;" horiz-adv-x="573" d="M-53 1802q0 62 42 104t103 42q60 0 102 -42.5t42 -103.5q0 -60 -43 -101.5t-103 -41.5q-61 0 -102 41.5t-41 101.5zM174 0v1544h225v-1544h-225zM336 1804q0 62 42 105t105 43q57 0 99.5 -42t42.5 -102q0 -61 -43 -104t-103 -43q-61 0 -102 41.5t-41 101.5z" />
<glyph unicode="&#xd0;" horiz-adv-x="1478" d="M-35 694v156h168v694h283q262 0 406 -40t274 -146q266 -222 266 -586q0 -202 -84.5 -364t-245.5 -271q-117 -78 -248.5 -107.5t-367.5 -29.5h-283v694h-168zM358 215h56q174 0 290 29t205 96q205 157 205 432q0 163 -74 288.5t-211 196.5q-77 40 -168 56t-247 16h-56 v-479h424v-156h-424v-479z" />
<glyph unicode="&#xd1;" horiz-adv-x="1708" d="M174 0v1573l1135 -1079v1050h225v-1575l-1135 1084v-1053h-225zM514 1794q32 69 89.5 108.5t127.5 39.5q43 0 75.5 -11.5t121.5 -58.5q51 -19 73 -19q41 0 64 20t53 79l90 -101q-34 -68 -90.5 -106.5t-124.5 -38.5q-39 0 -69.5 10t-104.5 47q-60 29 -88 29 q-42 0 -68 -22.5t-45 -73.5z" />
<glyph unicode="&#xd2;" horiz-adv-x="1773" d="M82 772q0 163 59 312t163 261t256 179t327 67t327 -67t256 -179t163 -261t59 -312t-59 -312t-163 -261t-256 -179t-327 -67t-327 67t-256 179t-163 261t-59 312zM322 772q0 -170 72.5 -308t202.5 -217t290 -79t290 79t202.5 217t72.5 308t-72.5 308t-202.5 217t-290 79 t-290 -79t-202.5 -217t-72.5 -308zM627 1927l123 137l303 -278l-95 -103z" />
<glyph unicode="&#xd3;" horiz-adv-x="1773" d="M82 772q0 163 59 312t163 261t256 179t327 67t327 -67t256 -179t163 -261t59 -312t-59 -312t-163 -261t-256 -179t-327 -67t-327 67t-256 179t-163 261t-59 312zM322 772q0 -170 72.5 -308t202.5 -217t290 -79t290 79t202.5 217t72.5 308t-72.5 308t-202.5 217t-290 79 t-290 -79t-202.5 -217t-72.5 -308zM731 1786l303 278l123 -137l-332 -244z" />
<glyph unicode="&#xd4;" horiz-adv-x="1773" d="M82 772q0 163 59 312t163 261t256 179t327 67t327 -67t256 -179t163 -261t59 -312t-59 -312t-163 -261t-256 -179t-327 -67t-327 67t-256 179t-163 261t-59 312zM322 772q0 -170 72.5 -308t202.5 -217t290 -79t290 79t202.5 217t72.5 308t-72.5 308t-202.5 217t-290 79 t-290 -79t-202.5 -217t-72.5 -308zM569 1743l324 307l321 -307l-110 -101l-211 199l-213 -199z" />
<glyph unicode="&#xd5;" horiz-adv-x="1773" d="M82 772q0 163 59 312t163 261t256 179t327 67t327 -67t256 -179t163 -261t59 -312t-59 -312t-163 -261t-256 -179t-327 -67t-327 67t-256 179t-163 261t-59 312zM322 772q0 -170 72.5 -308t202.5 -217t290 -79t290 79t202.5 217t72.5 308t-72.5 308t-202.5 217t-290 79 t-290 -79t-202.5 -217t-72.5 -308zM532 1794q33 70 90 109t128 39q43 0 75 -11.5t121 -58.5q51 -19 74 -19q41 0 64 20t51 79l92 -101q-34 -68 -90.5 -106.5t-126.5 -38.5q-39 0 -68 10t-104 47q-60 29 -88 29q-42 0 -68 -22t-47 -74z" />
<glyph unicode="&#xd6;" horiz-adv-x="1773" d="M82 772q0 163 59 312t163 261t256 179t327 67t327 -67t256 -179t163 -261t59 -312t-59 -312t-163 -261t-256 -179t-327 -67t-327 67t-256 179t-163 261t-59 312zM322 772q0 -170 72.5 -308t202.5 -217t290 -79t290 79t202.5 217t72.5 308t-72.5 308t-202.5 217t-290 79 t-290 -79t-202.5 -217t-72.5 -308zM510 1802q0 61 42.5 103.5t104.5 42.5q60 0 102 -42.5t42 -103.5q0 -60 -43 -101.5t-105 -41.5q-60 0 -101.5 41.5t-41.5 101.5zM979 1804q0 62 42 105t105 43q58 0 100 -42t42 -102q0 -61 -43 -104t-103 -43q-61 0 -102 41.5t-41 101.5z " />
<glyph unicode="&#xd7;" horiz-adv-x="1464" d="M102 121l492 489l-492 492l140 139l487 -491l494 491l139 -139l-494 -492l494 -489l-139 -139l-490 491l-491 -491z" />
<glyph unicode="&#xd8;" horiz-adv-x="1822" d="M82 37l194 192q-94 111 -144 250.5t-50 292.5q0 163 59 312t163 261t256 179t327 67q160 0 299.5 -55.5t245.5 -155.5l217 215l92 -98l-217 -217q168 -227 168 -508q0 -163 -59 -312t-163 -261t-256 -179t-327 -67q-299 0 -514 180l-193 -192zM322 772q0 -221 116 -381 l834 830q-155 155 -385 155q-160 0 -290 -79t-202.5 -217t-72.5 -308zM532 293q150 -125 355 -125q160 0 290 79t202.5 217t72.5 308q0 189 -94 342z" />
<glyph unicode="&#xd9;" horiz-adv-x="1488" d="M154 539v1005h225v-1005q0 -167 100 -269t266 -102q165 0 265 102.5t100 268.5v1005h225v-1005q0 -170 -67.5 -301.5t-202.5 -208t-320 -76.5q-186 0 -321 76.5t-202.5 207.5t-67.5 302zM479 1927l123 137l303 -278l-94 -103z" />
<glyph unicode="&#xda;" horiz-adv-x="1488" d="M154 539v1005h225v-1005q0 -167 100 -269t266 -102q165 0 265 102.5t100 268.5v1005h225v-1005q0 -170 -67.5 -301.5t-202.5 -208t-320 -76.5q-186 0 -321 76.5t-202.5 207.5t-67.5 302zM575 1786l304 278l122 -137l-331 -244z" />
<glyph unicode="&#xdb;" horiz-adv-x="1488" d="M154 539v1005h225v-1005q0 -167 100 -269t266 -102q165 0 265 102.5t100 268.5v1005h225v-1005q0 -170 -67.5 -301.5t-202.5 -208t-320 -76.5q-186 0 -321 76.5t-202.5 207.5t-67.5 302zM416 1743l325 307l322 -307l-113 -101l-209 199l-213 -199z" />
<glyph unicode="&#xdc;" horiz-adv-x="1488" d="M154 539v1005h225v-1005q0 -167 100 -269t266 -102q165 0 265 102.5t100 268.5v1005h225v-1005q0 -170 -67.5 -301.5t-202.5 -208t-320 -76.5q-186 0 -321 76.5t-202.5 207.5t-67.5 302zM367 1802q0 62 42 104t103 42q60 0 101.5 -42.5t41.5 -103.5q0 -60 -42.5 -101.5 t-102.5 -41.5q-61 0 -102 41.5t-41 101.5zM834 1804q0 62 42 105t105 43q57 0 99 -42t42 -102q0 -61 -42.5 -104t-102.5 -43q-61 0 -102 41.5t-41 101.5z" />
<glyph unicode="&#xdd;" horiz-adv-x="1243" d="M-20 1544h247l406 -639l397 639h234l-523 -848v-696h-225v672zM451 1786l303 278l123 -137l-332 -244z" />
<glyph unicode="&#xde;" horiz-adv-x="1101" d="M135 0v1544h225v-231h140q137 0 229.5 -26t163.5 -83q151 -124 151 -338q0 -131 -58.5 -230.5t-168.5 -156.5q-67 -36 -155.5 -47.5t-301.5 -11.5v-420h-225zM360 635h103q106 0 150.5 6t84.5 25q115 62 115 200q0 68 -30 119.5t-85 79.5q-40 19 -89 26t-146 7h-103v-463 z" />
<glyph unicode="&#xdf;" horiz-adv-x="1257" d="M41 791v192h147v147q0 102 35 186t94.5 138t136.5 83.5t162 29.5q81 0 156 -27.5t133 -76.5t92.5 -123.5t34.5 -161.5q0 -105 -58 -189.5t-157 -124.5q169 -38 269 -153.5t100 -286.5q0 -189 -127 -319t-314 -130q-139 0 -241 54v196q78 -49 201 -49q106 0 184 68.5 t78 195.5q0 148 -103.5 229t-285.5 81v194q103 0 169 60t66 161q0 85 -57 143t-152 58q-99 0 -153 -70t-54 -163v-1133h-209v791h-147z" />
<glyph unicode="&#xe0;" horiz-adv-x="1243" d="M72 485q0 146 64.5 266t180 189.5t258.5 69.5q102 0 192 -44.5t134 -117.5v135h209v-983h-209v143q-43 -78 -134.5 -123t-197.5 -45q-135 0 -250 70t-181 187.5t-66 252.5zM289 492q0 -136 87 -226t214 -90t212 93.5t85 222.5q0 131 -86.5 223t-216.5 92 q-129 0 -212 -92.5t-83 -222.5zM373 1378l123 138l303 -279l-94 -102z" />
<glyph unicode="&#xe1;" horiz-adv-x="1243" d="M72 485q0 146 64.5 266t180 189.5t258.5 69.5q102 0 192 -44.5t134 -117.5v135h209v-983h-209v143q-43 -78 -134.5 -123t-197.5 -45q-135 0 -250 70t-181 187.5t-66 252.5zM289 492q0 -136 87 -226t214 -90t212 93.5t85 222.5q0 131 -86.5 223t-216.5 92 q-129 0 -212 -92.5t-83 -222.5zM451 1237l303 279l123 -138l-332 -243z" />
<glyph unicode="&#xe2;" horiz-adv-x="1243" d="M72 485q0 146 64.5 266t180 189.5t258.5 69.5q102 0 192 -44.5t134 -117.5v135h209v-983h-209v143q-43 -78 -134.5 -123t-197.5 -45q-135 0 -250 70t-181 187.5t-66 252.5zM289 492q0 -136 87 -226t214 -90t212 93.5t85 222.5q0 131 -86.5 223t-216.5 92 q-129 0 -212 -92.5t-83 -222.5zM293 1188l323 307l322 -307l-111 -101l-211 199l-213 -199z" />
<glyph unicode="&#xe3;" horiz-adv-x="1243" d="M72 485q0 146 64.5 266t180 189.5t258.5 69.5q102 0 192 -44.5t134 -117.5v135h209v-983h-209v143q-43 -78 -134.5 -123t-197.5 -45q-135 0 -250 70t-181 187.5t-66 252.5zM260 1253q34 71 91 110.5t128 39.5q40 0 70.5 -11.5t126.5 -60.5q34 -18 74 -18q41 0 63.5 19 t50.5 79l90 -100q-29 -68 -87 -108t-128 -40q-41 0 -71 10.5t-101 51.5q-53 26 -88 26q-44 0 -68.5 -21t-45.5 -73zM289 492q0 -136 87 -226t214 -90t212 93.5t85 222.5q0 131 -86.5 223t-216.5 92q-129 0 -212 -92.5t-83 -222.5z" />
<glyph unicode="&#xe4;" horiz-adv-x="1243" d="M72 485q0 146 64.5 266t180 189.5t258.5 69.5q102 0 192 -44.5t134 -117.5v135h209v-983h-209v143q-43 -78 -134.5 -123t-197.5 -45q-135 0 -250 70t-181 187.5t-66 252.5zM248 1264q0 61 42.5 103t102.5 42q61 0 102.5 -41.5t41.5 -103.5q0 -61 -42 -102.5t-104 -41.5 q-61 0 -102 41t-41 103zM289 492q0 -136 87 -226t214 -90t212 93.5t85 222.5q0 131 -86.5 223t-216.5 92q-129 0 -212 -92.5t-83 -222.5zM715 1266q0 61 43 103t106 42q58 0 99 -41t41 -102q0 -60 -42.5 -103t-103.5 -43q-60 0 -101.5 42t-41.5 102z" />
<glyph unicode="&#xe5;" horiz-adv-x="1243" d="M72 485q0 146 64.5 266t180 189.5t258.5 69.5q102 0 192 -44.5t134 -117.5v135h209v-983h-209v143q-43 -78 -134.5 -123t-197.5 -45q-135 0 -250 70t-181 187.5t-66 252.5zM289 492q0 -136 87 -226t214 -90t212 93.5t85 222.5q0 131 -86.5 223t-216.5 92 q-129 0 -212 -92.5t-83 -222.5zM401 1325q0 91 65 155t157 64q88 0 151.5 -65t63.5 -154t-64 -153t-153 -64q-91 0 -155.5 64t-64.5 153zM522 1325q0 -39 29.5 -67.5t69.5 -28.5t68 28t28 68t-28 69t-68 29t-69.5 -29t-29.5 -69z" />
<glyph unicode="&#xe6;" horiz-adv-x="1771" d="M96 297q0 144 111 238q110 94 274 94q62 0 131.5 -19.5t122.5 -52.5q0 124 -68.5 187t-187.5 63q-114 0 -254 -45v196q134 52 289 52q120 0 205.5 -44t134.5 -114q135 158 354 158q202 0 346 -144q80 -82 118 -193.5t38 -230.5h-766q2 -115 79.5 -191.5t195.5 -76.5 q160 0 254 156l167 -121q-71 -114 -181 -174t-238 -60q-228 0 -363 154q-61 -74 -155 -116t-207 -42q-178 0 -291 90q-109 87 -109 236zM313 299q3 -65 59.5 -98t139.5 -33q85 0 147 37t62 100q0 56 -59.5 91.5t-151.5 35.5q-88 0 -142.5 -38t-54.5 -95zM963 614h491 q-20 93 -84.5 145t-161.5 52q-99 0 -161.5 -57t-83.5 -140z" />
<glyph unicode="&#xe7;" horiz-adv-x="960" d="M72 487q0 147 69 267t187.5 188t261.5 68q152 0 278 -74v-227q-67 53 -128 74.5t-132 21.5q-135 0 -226 -88t-91 -225q0 -138 91 -227t226 -89q71 0 132 21.5t128 74.5v-225q-124 -76 -278 -76q-218 0 -368 147.5t-150 368.5zM299 -385l252 279l123 -60l-213 -291z" />
<glyph unicode="&#xe8;" horiz-adv-x="1142" d="M72 496q0 138 62.5 255t178 188t260.5 71q209 0 353 -144q80 -81 117.5 -193.5t37.5 -232.5h-778q1 -113 85.5 -189.5t203.5 -76.5q170 0 264 156l168 -121q-70 -113 -185 -173.5t-245 -60.5q-223 0 -372.5 147t-149.5 374zM322 614h499q-19 90 -85 143.5t-163 53.5 q-99 0 -164.5 -57.5t-86.5 -139.5zM340 1378l123 138l303 -279l-94 -102z" />
<glyph unicode="&#xe9;" horiz-adv-x="1142" d="M72 496q0 138 62.5 255t178 188t260.5 71q209 0 353 -144q80 -81 117.5 -193.5t37.5 -232.5h-778q1 -113 85.5 -189.5t203.5 -76.5q170 0 264 156l168 -121q-70 -113 -185 -173.5t-245 -60.5q-223 0 -372.5 147t-149.5 374zM322 614h499q-19 90 -85 143.5t-163 53.5 q-99 0 -164.5 -57.5t-86.5 -139.5zM416 1237l303 279l123 -138l-332 -243z" />
<glyph unicode="&#xea;" horiz-adv-x="1142" d="M72 496q0 138 62.5 255t178 188t260.5 71q209 0 353 -144q80 -81 117.5 -193.5t37.5 -232.5h-778q1 -113 85.5 -189.5t203.5 -76.5q170 0 264 156l168 -121q-70 -113 -185 -173.5t-245 -60.5q-223 0 -372.5 147t-149.5 374zM262 1188l324 307l321 -307l-110 -101 l-211 199l-213 -199zM322 614h499q-19 90 -85 143.5t-163 53.5q-99 0 -164.5 -57.5t-86.5 -139.5z" />
<glyph unicode="&#xeb;" horiz-adv-x="1142" d="M72 496q0 138 62.5 255t178 188t260.5 71q209 0 353 -144q80 -81 117.5 -193.5t37.5 -232.5h-778q1 -113 85.5 -189.5t203.5 -76.5q170 0 264 156l168 -121q-70 -113 -185 -173.5t-245 -60.5q-223 0 -372.5 147t-149.5 374zM186 1264q0 61 42 103t104 42q60 0 101.5 -42 t41.5 -103t-42.5 -102.5t-102.5 -41.5q-62 0 -103 41t-41 103zM322 614h499q-19 90 -85 143.5t-163 53.5q-99 0 -164.5 -57.5t-86.5 -139.5zM653 1266q0 61 43 103t105 42q59 0 100 -41t41 -102q0 -60 -42 -103t-103 -43t-102.5 42t-41.5 102z" />
<glyph unicode="&#xec;" horiz-adv-x="473" d="M-88 1378l123 138l303 -279l-94 -102zM131 0v983h209v-983h-209z" />
<glyph unicode="&#xed;" horiz-adv-x="473" d="M131 0v983h209v-983h-209zM131 1237l303 279l123 -138l-332 -243z" />
<glyph unicode="&#xee;" horiz-adv-x="473" d="M-88 1188l324 307l321 -307l-111 -101l-210 199l-213 -199zM131 0v983h209v-983h-209z" />
<glyph unicode="&#xef;" horiz-adv-x="473" d="M-104 1264q0 62 42 103.5t103 41.5q60 0 101.5 -42t41.5 -103t-42.5 -102.5t-102.5 -41.5q-61 0 -102 41t-41 103zM131 0v983h209v-983h-209zM283 1266q0 61 43 103t106 42q58 0 99.5 -41t41.5 -102q0 -60 -43 -103t-104 -43q-60 0 -101.5 42t-41.5 102z" />
<glyph unicode="&#xf0;" horiz-adv-x="1181" d="M80 481q0 107 39 204t106.5 168t163 113t203.5 42q49 0 88 -9l-141 277l-154 -98l-66 129l150 98l-84 145l125 70l88 -135l150 96l77 -125l-145 -90l270 -420q93 -145 132.5 -248.5t39.5 -199.5q0 -143 -69.5 -263.5t-190.5 -190t-266 -69.5q-220 0 -368 145.5 t-148 360.5zM301 496q0 -132 88.5 -226t212.5 -94t211.5 94t87.5 226q0 133 -86.5 223t-216.5 90q-125 0 -211 -90.5t-86 -222.5z" />
<glyph unicode="&#xf1;" horiz-adv-x="1114" d="M133 0v983h209v-123q53 71 131 110.5t156 39.5q175 0 270.5 -117t95.5 -295v-598h-207v528q0 80 -11.5 133t-49.5 93q-52 55 -149 55q-89 0 -148.5 -57.5t-75.5 -143.5q-1 -6 -3.5 -23t-4 -31.5t-3 -56.5t-1.5 -104v-393h-209zM217 1253q33 71 89.5 110.5t127.5 39.5 q40 0 70.5 -11.5t126.5 -60.5q34 -18 74 -18q41 0 63.5 19t50.5 79l92 -100q-31 -68 -89 -108t-128 -40q-41 0 -71 10.5t-101 51.5q-53 26 -88 26q-44 0 -69 -21t-46 -73z" />
<glyph unicode="&#xf2;" horiz-adv-x="1169" d="M72 492q0 143 67.5 261.5t187 187.5t265.5 69q140 0 256.5 -67.5t183 -185.5t66.5 -259q0 -144 -67.5 -264t-187 -189.5t-265.5 -69.5q-140 0 -256.5 69.5t-183 188t-66.5 259.5zM291 498q0 -135 84 -228.5t213 -93.5q124 0 207.5 91.5t83.5 224.5q0 135 -84 225t-213 90 q-124 0 -207.5 -89t-83.5 -220zM340 1378l123 138l303 -279l-94 -102z" />
<glyph unicode="&#xf3;" horiz-adv-x="1169" d="M72 492q0 143 67.5 261.5t187 187.5t265.5 69q140 0 256.5 -67.5t183 -185.5t66.5 -259q0 -144 -67.5 -264t-187 -189.5t-265.5 -69.5q-140 0 -256.5 69.5t-183 188t-66.5 259.5zM291 498q0 -135 84 -228.5t213 -93.5q124 0 207.5 91.5t83.5 224.5q0 135 -84 225t-213 90 q-124 0 -207.5 -89t-83.5 -220zM428 1237l303 279l123 -138l-332 -243z" />
<glyph unicode="&#xf4;" horiz-adv-x="1169" d="M72 492q0 143 67.5 261.5t187 187.5t265.5 69q140 0 256.5 -67.5t183 -185.5t66.5 -259q0 -144 -67.5 -264t-187 -189.5t-265.5 -69.5q-140 0 -256.5 69.5t-183 188t-66.5 259.5zM258 1188l324 307l321 -307l-110 -101l-211 199l-213 -199zM291 498q0 -135 84 -228.5 t213 -93.5q124 0 207.5 91.5t83.5 224.5q0 135 -84 225t-213 90q-124 0 -207.5 -89t-83.5 -220z" />
<glyph unicode="&#xf5;" horiz-adv-x="1169" d="M72 492q0 143 67.5 261.5t187 187.5t265.5 69q140 0 256.5 -67.5t183 -185.5t66.5 -259q0 -144 -67.5 -264t-187 -189.5t-265.5 -69.5q-140 0 -256.5 69.5t-183 188t-66.5 259.5zM236 1253q34 71 91 110.5t128 39.5q40 0 69.5 -11.5t126.5 -60.5q35 -18 74 -18 q42 0 65 19.5t50 78.5l90 -100q-29 -68 -87.5 -108t-127.5 -40q-41 0 -71 10.5t-101 51.5q-56 26 -88 26q-44 0 -69 -21t-46 -73zM291 498q0 -135 84 -228.5t213 -93.5q124 0 207.5 91.5t83.5 224.5q0 135 -84 225t-213 90q-124 0 -207.5 -89t-83.5 -220z" />
<glyph unicode="&#xf6;" horiz-adv-x="1169" d="M72 492q0 143 67.5 261.5t187 187.5t265.5 69q140 0 256.5 -67.5t183 -185.5t66.5 -259q0 -144 -67.5 -264t-187 -189.5t-265.5 -69.5q-140 0 -256.5 69.5t-183 188t-66.5 259.5zM201 1264q0 62 41.5 103.5t103.5 41.5q60 0 101.5 -42t41.5 -103t-42.5 -102.5 t-102.5 -41.5q-61 0 -102 41t-41 103zM291 498q0 -135 84 -228.5t213 -93.5q124 0 207.5 91.5t83.5 224.5q0 135 -84 225t-213 90q-124 0 -207.5 -89t-83.5 -220zM668 1266q0 61 42.5 103t104.5 42q58 0 99.5 -41t41.5 -102q0 -60 -42.5 -103t-102.5 -43q-61 0 -102 42 t-41 102z" />
<glyph unicode="&#xf7;" horiz-adv-x="1304" d="M119 688v168h1065v-168h-1065zM496 414q0 68 44 112.5t111 44.5q65 0 110.5 -45.5t45.5 -109.5q0 -67 -45 -111.5t-113 -44.5q-64 0 -108.5 44.5t-44.5 109.5zM496 1126q0 68 44 113t111 45q65 0 110.5 -46t45.5 -110q0 -67 -45 -111t-113 -44q-65 0 -109 44.5t-44 108.5 z" />
<glyph unicode="&#xf8;" horiz-adv-x="1191" d="M66 51l118 117q-110 138 -110 324q0 143 67.5 261.5t187 187.5t265.5 69q186 0 328 -119l122 121l70 -70l-125 -123q111 -140 111 -321q0 -144 -67.5 -264t-187 -189.5t-265.5 -69.5q-190 0 -330 121l-119 -114zM293 498q0 -100 45 -179l432 422q-79 66 -186 66 q-124 0 -207.5 -89t-83.5 -220zM401 244q77 -68 189 -68q124 0 207.5 91.5t83.5 224.5q0 93 -47 176z" />
<glyph unicode="&#xf9;" horiz-adv-x="1103" d="M119 485v498h207v-537q0 -134 47 -190q65 -80 178 -80q115 0 180 80q47 56 47 190v537h207v-498q0 -119 -9 -174.5t-34 -109.5q-51 -107 -153.5 -166.5t-239.5 -59.5t-236 59t-151 167q-25 54 -34 109.5t-9 174.5zM276 1378l123 138l303 -279l-94 -102z" />
<glyph unicode="&#xfa;" horiz-adv-x="1103" d="M119 485v498h207v-537q0 -134 47 -190q65 -80 178 -80q115 0 180 80q47 56 47 190v537h207v-498q0 -119 -9 -174.5t-34 -109.5q-51 -107 -153.5 -166.5t-239.5 -59.5t-236 59t-151 167q-25 54 -34 109.5t-9 174.5zM383 1237l303 279l123 -138l-332 -243z" />
<glyph unicode="&#xfb;" horiz-adv-x="1103" d="M119 485v498h207v-537q0 -134 47 -190q65 -80 178 -80q115 0 180 80q47 56 47 190v537h207v-498q0 -119 -9 -174.5t-34 -109.5q-51 -107 -153.5 -166.5t-239.5 -59.5t-236 59t-151 167q-25 54 -34 109.5t-9 174.5zM223 1188l324 307l321 -307l-110 -101l-211 199 l-213 -199z" />
<glyph unicode="&#xfc;" horiz-adv-x="1103" d="M119 485v498h207v-537q0 -134 47 -190q65 -80 178 -80q115 0 180 80q47 56 47 190v537h207v-498q0 -119 -9 -174.5t-34 -109.5q-51 -107 -153.5 -166.5t-239.5 -59.5t-236 59t-151 167q-25 54 -34 109.5t-9 174.5zM174 1264q0 61 42.5 103t102.5 42q61 0 102.5 -41.5 t41.5 -103.5q0 -61 -42 -102.5t-104 -41.5q-60 0 -101.5 41.5t-41.5 102.5zM641 1266q0 61 43.5 103t106.5 42q58 0 99.5 -41t41.5 -102q0 -60 -43 -103t-103 -43q-61 0 -103 42t-42 102z" />
<glyph unicode="&#xfd;" horiz-adv-x="1087" d="M0 983h244l297 -610l327 610h230l-783 -1472h-237l342 643zM416 1237l303 279l123 -138l-332 -243z" />
<glyph unicode="&#xfe;" horiz-adv-x="1216" d="M109 -487v2080h208v-745q113 162 318 162q135 0 253.5 -71t188.5 -190t70 -255q0 -139 -70 -259t-189.5 -190t-258.5 -70q-95 0 -175.5 42t-136.5 120v-624h-208zM330 492q0 -132 87 -224t212 -92t212 92t87 224q0 131 -88.5 223t-214.5 92q-120 0 -207.5 -93t-87.5 -222 z" />
<glyph unicode="&#xff;" horiz-adv-x="1087" d="M0 983h244l297 -610l327 610h230l-783 -1472h-237l342 643zM164 1264q0 61 42.5 103t104.5 42q60 0 102 -42t42 -103t-43 -102.5t-105 -41.5q-60 0 -101.5 41.5t-41.5 102.5zM633 1266q0 62 42 103.5t105 41.5q58 0 100 -41t42 -102q0 -60 -43 -103t-103 -43 q-61 0 -102 42t-41 102z" />
<glyph unicode="&#x152;" horiz-adv-x="2390" d="M82 772q0 163 59 312t163 261t256 179t327 67q174 0 317 -64.5t244 -180.5v198h860v-203h-635v-448h602v-201h-602v-491h635v-201h-860v197q-101 -116 -244 -180t-317 -64q-175 0 -327 67t-256 179t-163 261t-59 312zM322 772q0 -170 72.5 -308t202.5 -217t290 -79 q224 0 380 148t181 380v152q-25 231 -181 379.5t-380 148.5q-160 0 -290 -79t-202.5 -217t-72.5 -308z" />
<glyph unicode="&#x153;" horiz-adv-x="1949" d="M72 492q0 143 67.5 261.5t187 187.5t265.5 69q119 0 222 -50.5t173 -140.5q68 89 169 140t224 51q209 0 353 -144q80 -81 117.5 -192.5t37.5 -231.5h-778q2 -114 82.5 -191t198.5 -77q166 0 260 156l168 -121q-70 -113 -183.5 -173.5t-242.5 -60.5q-127 0 -233.5 50.5 t-176.5 140.5q-72 -90 -177 -140.5t-228 -50.5q-140 0 -256.5 69.5t-183 188t-66.5 259.5zM291 498q0 -135 84 -228.5t213 -93.5q124 0 207.5 94t83.5 228q0 131 -85 220t-212 89q-124 0 -207.5 -89t-83.5 -220zM1128 614h504q-20 92 -87 144.5t-165 52.5q-99 0 -165 -57.5 t-87 -139.5z" />
<glyph unicode="&#x178;" horiz-adv-x="1243" d="M-20 1544h247l406 -639l397 639h234l-523 -848v-696h-225v672zM236 1802q0 62 42 104t103 42q60 0 101.5 -42.5t41.5 -103.5q0 -60 -42.5 -101.5t-102.5 -41.5q-61 0 -102 41.5t-41 101.5zM702 1804q0 62 43 105t105 43q59 0 100 -42t41 -102q0 -62 -42 -104.5 t-103 -42.5t-102.5 41.5t-41.5 101.5z" />
<glyph unicode="&#x2c6;" d="M258 1188l326 307l321 -307l-112 -101l-209 199l-213 -199z" />
<glyph unicode="&#x2dc;" d="M236 1253q32 71 89.5 110.5t127.5 39.5q40 0 71 -12t125 -60q37 -18 74 -18q43 0 66 19t51 79l90 -100q-29 -68 -87.5 -108t-127.5 -40q-41 0 -71.5 10.5t-102.5 51.5q-53 26 -88 26q-43 0 -68.5 -21.5t-44.5 -72.5z" />
<glyph unicode="&#x2000;" horiz-adv-x="1033" />
<glyph unicode="&#x2001;" horiz-adv-x="2066" />
<glyph unicode="&#x2002;" horiz-adv-x="1033" />
<glyph unicode="&#x2003;" horiz-adv-x="2066" />
<glyph unicode="&#x2004;" horiz-adv-x="688" />
<glyph unicode="&#x2005;" horiz-adv-x="516" />
<glyph unicode="&#x2006;" horiz-adv-x="344" />
<glyph unicode="&#x2007;" horiz-adv-x="344" />
<glyph unicode="&#x2008;" horiz-adv-x="258" />
<glyph unicode="&#x2009;" horiz-adv-x="413" />
<glyph unicode="&#x200a;" horiz-adv-x="114" />
<glyph unicode="&#x2010;" horiz-adv-x="751" d="M72 451v196h608v-196h-608z" />
<glyph unicode="&#x2011;" horiz-adv-x="751" d="M72 451v196h608v-196h-608z" />
<glyph unicode="&#x2012;" horiz-adv-x="751" d="M72 451v196h608v-196h-608z" />
<glyph unicode="&#x2013;" horiz-adv-x="1089" d="M102 451v196h885v-196h-885z" />
<glyph unicode="&#x2014;" horiz-adv-x="1937" d="M143 451v196h1651v-196h-1651z" />
<glyph unicode="&#x2018;" horiz-adv-x="546" d="M61 1022l306 573l151 -61l-244 -598z" />
<glyph unicode="&#x2019;" horiz-adv-x="546" d="M61 995l246 600l211 -88l-305 -571z" />
<glyph unicode="&#x201a;" horiz-adv-x="546" d="M61 -252l244 598l205 -96l-301 -563z" />
<glyph unicode="&#x201c;" horiz-adv-x="944" d="M80 1030l305 569l152 -57l-246 -600zM424 1030l299 567l149 -65l-241 -596z" />
<glyph unicode="&#x201d;" horiz-adv-x="944" d="M80 1001l244 598l206 -92l-301 -567zM416 995l246 600l210 -88l-305 -571z" />
<glyph unicode="&#x201e;" horiz-adv-x="944" d="M78 -244l244 598l204 -96l-299 -563zM416 -254l243 600l213 -88l-305 -569z" />
<glyph unicode="&#x2022;" horiz-adv-x="1552" d="M457 782q0 135 95 228.5t232 93.5q128 0 221 -95t93 -225q0 -133 -93.5 -227t-224.5 -94q-132 0 -227.5 93.5t-95.5 225.5z" />
<glyph unicode="&#x2026;" horiz-adv-x="1628" d="M117 139q0 68 45 113t112 45q64 0 110 -45.5t46 -110.5q0 -67 -45 -112t-113 -45q-64 0 -109.5 45t-45.5 110zM657 139q0 68 44.5 113t111.5 45q65 0 110.5 -45.5t45.5 -110.5q0 -67 -45 -112t-113 -45q-63 0 -108.5 45.5t-45.5 109.5zM1198 139q0 67 45 112.5t113 45.5 q64 0 109.5 -45.5t45.5 -110.5q0 -67 -44.5 -112t-112.5 -45q-65 0 -110.5 45.5t-45.5 109.5z" />
<glyph unicode="&#x202f;" horiz-adv-x="413" />
<glyph unicode="&#x2039;" horiz-adv-x="700" d="M74 492l387 491l135 -94l-307 -397l307 -390l-135 -102z" />
<glyph unicode="&#x203a;" horiz-adv-x="700" d="M104 102l306 390l-306 397l134 94l389 -491l-389 -492z" />
<glyph unicode="&#x205f;" horiz-adv-x="516" />
<glyph unicode="&#x20ac;" horiz-adv-x="1576" d="M102 492v141h144q-6 53 -6 104q0 39 2 62h-140v141h158q70 245 266.5 404t442.5 159q284 0 485 -168l-88 -184q-64 68 -172.5 108.5t-224.5 40.5q-164 0 -295.5 -100t-186.5 -260h775l-64 -141h-745q-2 -25 -2 -62q0 -46 10 -104h659l-67 -141h-549q69 -143 191.5 -227.5 t273.5 -84.5q243 0 389 146v-236q-161 -115 -389 -115q-232 0 -428.5 148.5t-266.5 368.5h-172z" />
<glyph unicode="&#x2122;" horiz-adv-x="1714" d="M2 1417v127h590v-127h-219v-753h-152v753h-219zM606 664l240 935l303 -645l299 645l246 -935h-164l-125 516l-256 -562l-254 562l-123 -516h-166z" />
<glyph unicode="&#xe000;" horiz-adv-x="983" d="M0 0v983h983v-983h-983z" />
</font>
</defs>
</svg>
